<svg width="234" height="312" viewBox="0 0 234 312" fill="none" xmlns="http://www.w3.org/2000/svg">
<g clip-path="url(#clip0)">
<path d="M113.204 300.022C97.166 276.772 83.5614 257.392 72.0181 240.949C51.4594 211.663 37.4389 191.691 27.8547 175.755C20.4979 163.522 16.1323 154.251 13.5398 145.497C10.97 136.819 10 128.169 10 117C10 57.9053 57.9053 10 117 10C176.095 10 224 57.9053 224 117C224 128.169 223.03 136.819 220.46 145.497C217.868 154.251 213.502 163.522 206.145 175.755C196.561 191.691 182.541 211.663 161.982 240.949C150.439 257.391 136.836 276.769 120.799 300.017C118.966 302.66 115.039 302.661 113.204 300.022ZM117 175.75C149.447 175.75 175.75 149.447 175.75 117C175.75 84.5531 149.447 58.25 117 58.25C84.5531 58.25 58.25 84.5531 58.25 117C58.25 149.447 84.5531 175.75 117 175.75Z" stroke="#552676" stroke-width="20"/>
</g>
<defs>
<clipPath id="clip0">
<rect width="234" height="312" fill="white"/>
</clipPath>
</defs>
</svg>
