<svg width="560" height="560" viewBox="0 0 560 560" fill="none" xmlns="http://www.w3.org/2000/svg">
<g clip-path="url(#clip0)">
<path d="M390.668 176.556C376.027 155.111 358.379 144.377 337.729 144.377H222.232C201.577 144.377 183.927 155.118 169.294 176.556L92.2931 292.065C89.0801 296.869 87.4771 302.193 87.4771 307.995C87.4771 316.031 90.2801 322.849 95.8981 328.448C101.51 334.079 108.328 336.876 116.351 336.876C126.578 336.876 134.595 332.573 140.415 323.938L208.689 221.379L222.227 221.085L147.936 415.297C146.13 418.302 145.231 421.619 145.231 425.224C145.231 430.439 147.134 434.955 150.947 438.762C154.754 442.58 159.264 444.484 164.485 444.484H222.233V526.296C222.233 535.519 225.544 543.438 232.16 550.054C238.776 556.669 246.695 559.981 255.924 559.981H304.051C313.274 559.981 321.194 556.669 327.815 550.054C334.438 543.438 337.743 535.519 337.743 526.296V444.484H395.497C400.712 444.484 405.222 442.581 409.034 438.762C412.841 434.955 414.751 430.445 414.751 425.224C414.751 421.62 413.851 418.302 412.046 415.297L337.749 221.085L351.286 221.379L419.567 323.938C425.379 332.574 433.403 336.876 443.629 336.876C451.647 336.876 458.465 334.079 464.082 328.448C469.695 322.843 472.504 316.031 472.504 307.995C472.504 302.193 470.895 296.869 467.693 292.065L390.668 176.556Z" fill="#F1CF8E"/>
<path d="M232.306 19.707C219.173 32.841 212.606 48.728 212.606 67.376C212.606 86.036 219.172 101.917 232.306 115.057C245.439 128.19 261.333 134.764 279.981 134.764C298.629 134.764 314.522 128.197 327.656 115.057C340.789 101.924 347.355 86.036 347.355 67.376C347.355 48.728 340.789 32.847 327.656 19.707C314.521 6.573 298.629 0 279.981 0C261.333 0 245.439 6.567 232.306 19.707Z" fill="#F1CF8E"/>
</g>
<defs>
<clipPath id="clip0">
<rect width="559.98" height="559.98" fill="white"/>
</clipPath>
</defs>
</svg>
