<svg width="512" height="512" viewBox="0 0 512 512" fill="none" xmlns="http://www.w3.org/2000/svg">
<g clip-path="url(#clip0)">
<path d="M240.961 261.105H270.965V309.026H240.961V261.105Z" fill="#F1CF8E"/>
<path d="M374.777 380.912L465.098 290.157C467.764 287.478 470.707 285.177 473.862 283.279L473.26 282.676C466.375 275.791 457.204 272.001 447.433 272.001C447.424 272.001 447.414 272.001 447.406 272.001C437.644 272.008 428.488 275.802 421.627 282.684L365.442 339.031H64.9372C44.2563 339.031 27.4319 355.855 27.4319 376.536C27.4319 378.017 27.5279 379.475 27.6959 380.912H374.777Z" fill="#F1CF8E"/>
<path d="M507.58 311.272C501.709 305.427 492.209 305.45 486.364 311.323L387.246 410.917H15.0021C6.71694 410.917 0 417.634 0 425.919C0 434.204 6.71694 440.921 15.0021 440.921H23.9314V471.926C23.9314 480.211 30.6483 486.928 38.9335 486.928C47.2186 486.928 53.9356 480.211 53.9356 471.926V440.921H240.962V468.145C240.962 476.43 247.679 483.147 255.964 483.147C264.25 483.147 270.966 476.43 270.966 468.145V440.921H378.981V467.926C378.981 476.211 385.698 482.928 393.983 482.928C402.269 482.928 408.986 476.211 408.986 467.926V431.609L507.632 332.488C513.475 326.614 513.453 317.116 507.58 311.272Z" fill="#F1CF8E"/>
<path d="M91.3558 231.1H171.354C174.375 187.072 181.756 146.637 192.743 114.821C207.551 71.9401 225.431 54.2646 240.968 48.0217C245.533 46.1875 250.426 45.1583 255.349 45.0793C260.33 44.9983 265.298 45.8954 269.962 47.6357C270.295 47.7607 270.627 47.8897 270.957 48.0217C286.494 54.2646 304.375 71.9391 319.183 114.822C330.17 146.638 337.551 187.072 340.573 231.101H420.57C424.686 231.101 428.621 229.411 431.454 226.424C434.287 223.438 435.768 219.419 435.552 215.309C430.784 124.892 359.754 53.0454 270.965 45.7094V40.0746C270.965 31.7895 264.249 25.0725 255.963 25.0725C247.678 25.0725 240.961 31.7895 240.961 40.0746V45.7094C152.172 53.0454 81.1423 124.892 76.3746 215.309C76.1576 219.419 77.6398 223.438 80.4722 226.424C83.3046 229.41 87.2402 231.1 91.3558 231.1Z" fill="#F1CF8E"/>
<path d="M290.823 124.616C278.196 88.0524 264.152 75.0796 255.963 75.0796C247.774 75.0796 233.731 88.0534 221.104 124.616C211.116 153.54 204.334 190.519 201.423 231.102H310.504C307.593 190.518 300.812 153.541 290.823 124.616Z" fill="#F1CF8E"/>
</g>
<defs>
<clipPath id="clip0">
<rect width="512" height="512" fill="white"/>
</clipPath>
</defs>
</svg>
