<svg width="512" height="512" viewBox="0 0 512 512" fill="none" xmlns="http://www.w3.org/2000/svg">
<path d="M498.84 140.45L467.017 108.627L498.84 76.804C504.698 70.945 504.698 61.448 498.84 55.589L456.41 13.16C450.557 7.306 441.053 7.303 435.195 13.16L403.371 44.983L371.549 13.16C354.003 -4.387 325.451 -4.386 307.905 13.16L295.492 25.573C278.866 17.614 258.191 20.445 244.261 34.375L223.045 55.59C217.191 61.442 217.186 70.947 223.045 76.805L297.298 151.057L151.058 297.299L76.805 223.046C70.951 217.192 61.447 217.189 55.59 223.046L34.376 244.26C20.547 258.088 17.626 278.748 25.593 295.473L13.161 307.905C-4.38602 325.452 -4.38602 354.003 13.161 371.55L44.984 403.373L13.161 435.196C7.30198 441.054 7.30198 450.552 13.161 456.411L55.59 498.841C61.444 504.695 70.948 504.698 76.805 498.841L108.628 467.018L140.452 498.842C157.998 516.387 186.549 516.387 204.096 498.842L216.51 486.429C233.136 494.388 253.811 491.557 267.741 477.627L288.957 456.412C294.81 450.558 294.815 441.055 288.957 435.197L214.704 360.944L360.944 214.704L435.197 288.957C441.05 294.811 450.555 294.814 456.412 288.957L477.627 267.742C491.456 253.914 494.377 233.254 486.41 216.529L498.842 204.097C516.387 186.547 516.387 157.997 498.84 140.45ZM445.804 44.983L467.019 66.198L445.804 87.414L424.588 66.199L445.804 44.983ZM66.198 467.017L44.983 445.802L66.198 424.587L87.413 445.802L66.198 467.017ZM182.88 477.624C177.032 483.475 167.515 483.473 161.666 477.625L34.376 350.335C28.527 344.487 28.527 334.969 34.376 329.12L44.983 318.513L193.488 467.017L182.88 477.624ZM257.133 445.804L246.525 456.41C240.661 462.274 231.174 462.274 225.31 456.41L55.591 286.691C49.728 280.828 49.728 271.34 55.591 265.476L66.198 254.869C72.801 261.473 253.807 442.477 257.133 445.804ZM193.488 339.728L172.273 318.513L318.513 172.272L339.728 193.487L193.488 339.728ZM456.41 246.525L445.803 257.132L329.122 140.452L329.121 140.451L329.12 140.45L254.869 66.2L265.476 55.592C271.338 49.73 280.827 49.727 286.691 55.592L456.411 225.312C462.274 231.173 462.274 240.662 456.41 246.525ZM477.625 182.88L467.018 193.487L318.513 44.983L329.121 34.376C334.971 28.527 344.485 28.527 350.336 34.376L477.625 161.665C483.475 167.514 483.475 177.032 477.625 182.88Z" fill="#F1CF8E"/>
</svg>
