<svg width="479" height="479" viewBox="0 0 479 479" fill="none" xmlns="http://www.w3.org/2000/svg">
<g clip-path="url(#clip0)">
<path d="M239.415 91.71C264.728 91.71 285.253 71.177 285.253 45.856C285.252 20.526 264.728 0 239.415 0C214.094 0 193.56 20.526 193.56 45.855C193.559 71.177 214.093 91.71 239.415 91.71Z" fill="#F1CF8E"/>
<path d="M361.531 248.864L310.425 131.66C305.275 119.842 294.434 112 282.001 109.889C280.12 109.393 198.708 109.385 196.763 109.906C184.347 112.023 173.529 119.865 168.388 131.668L117.288 248.856C114.225 255.894 114.911 263.997 119.115 270.42C123.319 276.845 130.476 280.711 138.153 280.711C147.208 280.711 155.395 275.35 159.018 267.051L178.276 222.89V453.991C178.276 467.707 189.393 478.823 203.109 478.823C216.833 478.823 227.949 467.707 227.949 453.991V298.104H250.878V453.991C250.878 467.707 261.995 478.823 275.71 478.823C289.417 478.823 300.535 467.707 300.535 453.999V222.874L319.802 267.06C323.423 275.359 331.611 280.72 340.667 280.72C348.342 280.72 355.5 276.854 359.704 270.43C363.91 264.012 364.601 255.902 361.531 248.864Z" fill="#F1CF8E"/>
</g>
<defs>
<clipPath id="clip0">
<rect width="478.823" height="478.823" fill="white"/>
</clipPath>
</defs>
</svg>
