<svg width="512" height="512" viewBox="0 0 512 512" fill="none" xmlns="http://www.w3.org/2000/svg">
<g clip-path="url(#clip0)">
<path d="M416.667 224.936C408.966 224.936 401.478 225.86 394.302 227.592L356.387 136.596L389.278 125.633C397.137 123.013 401.384 114.518 398.764 106.659C396.144 98.801 387.654 94.55 379.79 97.173L330.565 113.624C322.918 116.811 319.302 125.592 322.488 133.239L331.913 155.858L200.44 190.04L186.936 158.536H207.8C216.084 158.536 222.8 151.82 222.8 143.536C222.8 135.252 216.084 128.536 207.8 128.536H143.533C135.249 128.536 128.533 135.252 128.533 143.536C128.533 151.82 135.249 158.536 143.533 158.536H154.296L174.268 205.13L145.196 239.048C130.68 230.104 113.6 224.936 95.334 224.936C42.767 224.936 0 267.702 0 320.269C0 372.836 42.767 415.602 95.333 415.602C142.797 415.602 182.266 380.734 189.482 335.269H239.932C244.724 335.269 249.228 332.979 252.052 329.106L348.808 196.411L366.62 239.161C339.462 255.979 321.331 286.044 321.331 320.268C321.331 372.835 364.097 415.601 416.664 415.601C469.231 415.601 512 372.836 512 320.269C512 267.702 469.233 224.936 416.667 224.936ZM95.333 385.603C59.309 385.603 30 356.294 30 320.269C30 284.244 59.309 254.936 95.333 254.936C106.135 254.936 116.324 257.587 125.309 262.249L83.944 310.508C80.131 314.956 79.257 321.216 81.705 326.538C84.153 331.86 89.475 335.27 95.333 335.27H158.908C152.11 364.085 126.196 385.603 95.333 385.603ZM127.947 305.269L187.439 235.861L217.185 305.269H127.947ZM243.339 290.138L212.393 217.929L315.548 191.108L243.339 290.138ZM416.667 385.603C380.642 385.603 351.334 356.294 351.334 320.27C351.334 298.539 362.009 279.264 378.379 267.38L402.82 326.039C406.006 333.686 414.789 337.302 422.435 334.116C430.082 330.929 433.698 322.148 430.512 314.501L406.058 255.811C409.513 255.244 413.053 254.936 416.666 254.936C452.691 254.936 481.999 284.245 481.999 320.269C481.999 356.293 452.691 385.603 416.667 385.603Z" fill="#F1CF8E"/>
</g>
<defs>
<clipPath id="clip0">
<rect width="512" height="512" fill="white"/>
</clipPath>
</defs>
</svg>
