<svg width="512" height="512" viewBox="0 0 512 512" fill="none" xmlns="http://www.w3.org/2000/svg">
<path d="M138.666 0H53.333V149.333H138.666V0Z" fill="#F1CF8E"/>
<path d="M245.333 0H160V341.333H245.333V0Z" fill="#F1CF8E"/>
<path d="M245.333 362.667H160V512H245.333V362.667Z" fill="#F1CF8E"/>
<path d="M352 0H266.667V192H352V0Z" fill="#F1CF8E"/>
<path d="M373.333 0V288C373.333 293.891 378.109 298.667 384 298.667H448C453.891 298.667 458.667 293.891 458.667 288V0H373.333Z" fill="#F1CF8E"/>
<path d="M352 213.333H266.667V512H352V213.333Z" fill="#F1CF8E"/>
<path d="M53.333 416C53.333 421.891 58.109 426.667 64 426.667H128C133.891 426.667 138.667 421.891 138.667 416V170.667H53.333V416Z" fill="#F1CF8E"/>
</svg>
