<svg width="512" height="512" viewBox="0 0 512 512" fill="none" xmlns="http://www.w3.org/2000/svg">
<path d="M153.255 353.907C159.883 353.901 166.421 352.369 172.362 349.428C178.302 346.487 183.485 342.217 187.509 336.949C191.53 342.217 196.712 346.486 202.652 349.425C208.592 352.364 215.13 353.892 221.758 353.892C228.385 353.892 234.923 352.364 240.863 349.425C246.803 346.486 251.985 342.217 256.007 336.949C260.028 342.217 265.21 346.486 271.15 349.425C277.09 352.364 283.628 353.892 290.256 353.892C296.883 353.892 303.421 352.364 309.361 349.425C315.301 346.486 320.483 342.217 324.505 336.949C328.833 342.6 334.491 347.095 340.975 350.032C347.459 352.969 354.569 354.258 361.671 353.784C368.774 353.311 375.649 351.089 381.686 347.317C387.723 343.545 392.734 338.34 396.273 332.164C399.813 325.988 401.771 319.033 401.974 311.917C402.177 304.802 400.619 297.746 397.437 291.379C394.256 285.011 389.549 279.528 383.738 275.418C377.926 271.308 371.188 268.698 364.124 267.82C366.81 261.677 368.027 254.991 367.678 248.295C367.329 241.6 365.425 235.077 362.115 229.245C358.806 223.414 354.183 218.434 348.613 214.701C343.044 210.968 336.681 208.584 330.029 207.74C332.64 201.608 333.797 194.954 333.408 188.301C333.019 181.647 331.095 175.174 327.787 169.388C324.478 163.602 319.876 158.661 314.339 154.951C308.802 151.24 302.482 148.862 295.872 148.003C298.626 141.433 299.713 134.284 299.037 127.192C298.361 120.101 295.943 113.286 291.997 107.355C288.052 101.423 282.702 96.5588 276.423 93.1942C270.144 89.8295 263.13 88.0689 256.007 88.0689C248.883 88.0689 241.87 89.8295 235.591 93.1942C229.311 96.5588 223.961 101.423 220.016 107.355C216.071 113.286 213.652 120.101 212.976 127.192C212.3 134.284 213.387 141.433 216.141 148.003C209.532 148.862 203.211 151.24 197.674 154.951C192.138 158.661 187.535 163.602 184.227 169.388C180.918 175.174 178.994 181.647 178.605 188.301C178.216 194.954 179.373 201.608 181.984 207.74C175.333 208.584 168.97 210.968 163.4 214.701C157.83 218.434 153.207 223.414 149.898 229.245C146.589 235.077 144.684 241.6 144.335 248.295C143.987 254.991 145.203 261.677 147.889 267.82C136.978 269.184 126.997 274.656 119.979 283.121C112.962 291.587 109.436 302.41 110.12 313.385C110.804 324.36 115.647 334.661 123.661 342.19C131.675 349.719 142.258 353.909 153.255 353.907V353.907ZM256.007 225.303C261.006 225.302 265.894 226.783 270.052 229.56C274.209 232.337 277.45 236.285 279.364 240.903C281.278 245.522 281.779 250.605 280.804 255.509C279.83 260.412 277.423 264.917 273.888 268.453C270.353 271.988 265.849 274.396 260.945 275.372C256.042 276.348 250.959 275.847 246.34 273.934C241.72 272.021 237.772 268.781 234.995 264.624C232.217 260.467 230.734 255.58 230.734 250.58C230.74 243.879 233.404 237.453 238.142 232.714C242.88 227.975 249.305 225.309 256.007 225.303V225.303ZM221.758 335.954C216.758 335.955 211.87 334.473 207.713 331.696C203.555 328.92 200.314 324.972 198.4 320.353C196.486 315.734 195.985 310.652 196.96 305.748C197.935 300.844 200.342 296.34 203.877 292.804C207.412 289.268 211.916 286.861 216.819 285.885C221.723 284.909 226.805 285.409 231.425 287.322C236.044 289.235 239.992 292.475 242.77 296.632C245.548 300.789 247.03 305.677 247.03 310.676C247.023 317.377 244.359 323.802 239.621 328.541C234.883 333.28 228.459 335.946 221.758 335.954ZM290.256 335.954C285.255 335.959 280.365 334.481 276.205 331.706C272.045 328.932 268.801 324.986 266.884 320.367C264.967 315.749 264.462 310.666 265.435 305.761C266.407 300.856 268.813 296.349 272.347 292.811C275.881 289.274 280.385 286.864 285.289 285.886C290.193 284.909 295.277 285.408 299.897 287.32C304.518 289.233 308.467 292.473 311.246 296.63C314.025 300.788 315.508 305.676 315.508 310.676C315.501 317.374 312.839 323.796 308.106 328.534C303.372 333.272 296.953 335.94 290.256 335.954V335.954ZM384.031 310.676C384.032 315.676 382.551 320.564 379.773 324.722C376.996 328.879 373.048 332.12 368.429 334.034C363.81 335.948 358.727 336.449 353.823 335.474C348.92 334.499 344.415 332.091 340.88 328.555C337.344 325.02 334.937 320.516 333.961 315.612C332.986 310.708 333.487 305.625 335.401 301.006C337.315 296.387 340.556 292.439 344.713 289.662C348.871 286.885 353.759 285.403 358.759 285.404C365.459 285.412 371.882 288.077 376.62 292.815C381.358 297.553 384.023 303.976 384.031 310.676V310.676ZM349.782 250.58C349.782 255.58 348.3 260.467 345.522 264.624C342.745 268.781 338.797 272.021 334.178 273.934C329.559 275.847 324.477 276.348 319.573 275.372C314.67 274.397 310.166 271.989 306.631 268.454C303.095 264.919 300.688 260.415 299.713 255.512C298.737 250.608 299.238 245.526 301.151 240.907C303.064 236.288 306.304 232.34 310.461 229.563C314.618 226.785 319.505 225.303 324.505 225.303C331.206 225.311 337.631 227.977 342.37 232.715C347.108 237.454 349.774 243.879 349.782 250.58V250.58ZM315.508 190.823C315.507 195.821 314.024 200.707 311.246 204.862C308.468 209.017 304.521 212.256 299.903 214.168C295.285 216.08 290.204 216.58 285.302 215.604C280.399 214.628 275.897 212.221 272.363 208.686C268.829 205.152 266.423 200.648 265.448 195.746C264.473 190.844 264.974 185.763 266.887 181.145C268.8 176.527 272.039 172.581 276.195 169.804C280.351 167.027 285.237 165.545 290.235 165.545C296.936 165.553 303.36 168.219 308.098 172.958C312.836 177.697 315.501 184.122 315.508 190.823V190.823ZM256.007 106.024C261.005 106.024 265.891 107.506 270.047 110.283C274.203 113.06 277.443 117.007 279.355 121.625C281.268 126.243 281.769 131.324 280.794 136.227C279.818 141.129 277.411 145.632 273.877 149.167C270.343 152.701 265.839 155.108 260.937 156.083C256.035 157.058 250.953 156.558 246.335 154.645C241.717 152.732 237.77 149.493 234.993 145.337C232.216 141.181 230.734 136.295 230.734 131.296C230.741 124.595 233.406 118.171 238.144 113.433C242.882 108.695 249.306 106.03 256.007 106.024V106.024ZM221.758 165.525C226.757 165.52 231.646 166.997 235.806 169.771C239.966 172.544 243.21 176.489 245.127 181.106C247.045 185.724 247.551 190.806 246.58 195.71C245.609 200.615 243.206 205.121 239.674 208.66C236.142 212.198 231.639 214.61 226.737 215.59C221.834 216.57 216.751 216.073 212.13 214.164C207.509 212.255 203.559 209.018 200.777 204.863C197.996 200.709 196.51 195.822 196.506 190.823C196.512 184.125 199.174 177.704 203.908 172.965C208.641 168.227 215.06 165.559 221.758 165.545V165.525ZM187.509 225.282C192.508 225.282 197.395 226.765 201.552 229.542C205.709 232.32 208.949 236.268 210.862 240.886C212.775 245.505 213.276 250.588 212.301 255.491C211.325 260.395 208.918 264.899 205.383 268.434C201.848 271.969 197.343 274.376 192.44 275.352C187.537 276.327 182.454 275.827 177.835 273.913C173.216 272 169.269 268.76 166.491 264.603C163.713 260.446 162.231 255.559 162.231 250.56C162.243 243.861 164.911 237.441 169.649 232.707C174.388 227.972 180.81 225.309 187.509 225.303V225.282ZM153.255 285.404C158.254 285.403 163.142 286.885 167.3 289.662C171.458 292.439 174.698 296.387 176.612 301.006C178.526 305.625 179.027 310.708 178.052 315.612C177.077 320.516 174.669 325.02 171.134 328.555C167.598 332.091 163.094 334.499 158.19 335.474C153.286 336.449 148.203 335.948 143.584 334.034C138.965 332.12 135.017 328.879 132.24 324.722C129.463 320.564 127.981 315.676 127.982 310.676C127.99 303.976 130.655 297.553 135.393 292.815C140.131 288.077 146.554 285.412 153.255 285.404V285.404Z" fill="#F1CF8E"/>
<path d="M107.521 390.49H404.513C414.017 390.527 423.361 388.053 431.601 383.317C439.841 378.582 446.683 371.753 451.435 363.523C456.186 355.293 458.679 345.953 458.661 336.449C458.642 326.946 456.113 317.616 451.329 309.404L302.823 52.2162C298.078 43.9983 291.254 37.1741 283.036 32.4295C274.818 27.685 265.496 25.1872 256.007 25.1872C246.517 25.1872 237.195 27.685 228.977 32.4295C220.76 37.1741 213.935 43.9983 209.191 52.2162L60.7048 309.404C55.9608 317.622 53.4634 326.944 53.4637 336.433C53.4641 345.922 55.962 355.243 60.7066 363.461C65.4511 371.679 72.2751 378.502 80.4927 383.247C88.7102 387.992 98.0319 390.489 107.521 390.49V390.49ZM76.2315 318.381L224.717 61.1926C227.887 55.705 232.446 51.1483 237.934 47.9802C243.423 44.8122 249.649 43.1444 255.986 43.1444C262.324 43.1444 268.549 44.8122 274.038 47.9802C279.527 51.1483 284.085 55.705 287.255 61.1926L435.761 318.381C438.931 323.871 440.598 330.099 440.597 336.438C440.596 342.777 438.926 349.005 435.754 354.494C432.583 359.983 428.022 364.54 422.531 367.707C417.04 370.875 410.811 372.54 404.472 372.537H107.48C101.131 372.564 94.8885 370.913 89.3834 367.751C83.8783 364.589 79.3063 360.029 76.1304 354.532C72.9544 349.035 71.2874 342.797 71.2979 336.448C71.3084 330.1 72.9963 323.867 76.1904 318.381H76.2315Z" fill="#F1CF8E"/>
<path d="M477.12 409.51C475.272 407.682 473.074 406.247 470.658 405.289C468.242 404.33 465.658 403.87 463.06 403.934L78.0165 411.669L65.706 411.915L48.1327 412.264C43.0313 412.395 38.1811 414.506 34.6097 418.151C31.0383 421.796 29.0263 426.689 29 431.792V445.097C29.0251 450.2 31.0368 455.093 34.6086 458.737C38.1804 462.382 43.0313 464.492 48.1327 464.62L65.706 464.974L118.795 466.041H118.954L463.034 472.955H463.435C468.612 472.951 473.577 470.891 477.236 467.229C480.896 463.566 482.952 458.6 482.952 453.422V423.462C482.964 420.864 482.454 418.29 481.452 415.893C480.451 413.497 478.977 411.326 477.12 409.51V409.51ZM110.029 447.908L74.8927 447.2V429.683L110.029 428.981V447.908ZM46.9837 445.097V431.792C46.9849 431.381 47.1463 430.986 47.4336 430.692C47.7209 430.398 48.1115 430.228 48.5225 430.217L56.9347 430.048V446.841L48.5225 446.672C48.1115 446.661 47.7209 446.491 47.4336 446.197C47.1463 445.903 46.9849 445.508 46.9837 445.097ZM465.03 453.428C465.032 453.638 464.992 453.847 464.911 454.041C464.83 454.235 464.709 454.41 464.558 454.556C464.22 454.791 463.832 454.946 463.424 455.007L127.961 448.267V428.617L463.424 421.882H463.46C463.667 421.882 463.872 421.924 464.062 422.004C464.253 422.083 464.426 422.2 464.572 422.347C464.718 422.493 464.833 422.667 464.912 422.859C464.99 423.05 465.03 423.255 465.03 423.462V453.428Z" fill="#F1CF8E"/>
</svg>
