<svg width="512" height="512" viewBox="0 0 512 512" fill="none" xmlns="http://www.w3.org/2000/svg">
<g clip-path="url(#clip0)">
<path d="M506.218 465.892C420.456 399.076 319.615 438.216 220.218 464.133L175.431 296.973C184.199 297.071 193.07 299.258 201.316 303.734C208.501 307.896 217.537 305.372 221.685 298.512C235.768 275.225 266.023 263.326 296.211 278.767C307.757 284.673 320.829 274.077 317.532 261.593C295.826 179.407 215.175 129.766 134.359 143.677L127.243 117.116C125.1 109.115 116.877 104.363 108.873 106.509C100.871 108.653 96.1231 116.878 98.2671 124.881L105.383 151.44C28.0921 179.929 -16.5679 263.526 5.74506 345.31C9.19406 357.947 26.2291 360.436 33.0591 349.109C47.7631 324.728 79.2341 314.167 107.496 329.245C114.598 333.014 123.307 330.528 127.389 323.781C132.279 315.694 138.889 309.298 146.465 304.779L191.071 471.262C133.725 484.155 76.0981 489.224 21.2691 464.09C13.7401 460.638 4.83606 463.945 1.38406 471.475C-2.06794 479.006 1.23806 487.91 8.76906 491.362C180.656 570.155 361.113 390.868 487.781 489.559C494.315 494.649 503.74 493.48 508.832 486.945C513.923 480.409 512.753 470.983 506.218 465.892ZM278.097 242.157C256.577 239.865 234.9 245.88 217.619 258.967C207.752 225.446 189.234 195.076 162.82 171.343C210.523 171.768 255.625 198.75 278.097 242.157ZM30.1371 308.658C27.9251 260.896 52.5421 214.329 94.6981 189.554C83.7871 222.982 82.7291 258.528 91.0281 292.861C69.4641 290.163 47.6431 295.835 30.1371 308.658ZM120.375 286.572C111.837 251.999 114.279 216.004 129.38 182.895C158.999 204.002 179.132 233.875 189.046 268.152C164.593 263.989 139.465 270.728 120.375 286.572Z" fill="#F1CF8E"/>
<path d="M285.293 135.955H301.243C309.527 135.955 316.242 129.239 316.242 120.955C316.242 112.671 309.526 105.955 301.243 105.955H285.293C277.009 105.955 270.294 112.671 270.294 120.955C270.294 129.239 277.009 135.955 285.293 135.955Z" fill="#F1CF8E"/>
<path d="M391.054 171.359C418.845 171.359 441.455 148.747 441.455 120.955C441.455 93.162 418.845 70.55 391.054 70.55C363.263 70.55 340.653 93.162 340.653 120.955C340.653 148.747 363.263 171.359 391.054 171.359ZM391.054 100.55C402.304 100.55 411.456 109.703 411.456 120.954C411.456 132.204 402.304 141.358 391.054 141.358C379.804 141.358 370.652 132.205 370.652 120.954C370.652 109.703 379.804 100.55 391.054 100.55Z" fill="#F1CF8E"/>
<path d="M391.054 45.952C399.338 45.952 406.053 39.236 406.053 30.952V15C406.053 6.716 399.337 0 391.054 0C382.771 0 376.055 6.716 376.055 15V30.951C376.055 39.236 382.77 45.952 391.054 45.952Z" fill="#F1CF8E"/>
<path d="M316.811 67.919C322.667 73.777 332.166 73.778 338.023 67.919C343.881 62.061 343.881 52.564 338.023 46.705L326.745 35.426C320.888 29.567 311.39 29.567 305.533 35.426C299.675 41.284 299.675 50.781 305.533 56.64L316.811 67.919Z" fill="#F1CF8E"/>
<path d="M316.811 173.989L305.533 185.268C299.675 191.126 299.675 200.623 305.533 206.482C311.389 212.34 320.888 212.341 326.745 206.482L338.023 195.203C343.881 189.345 343.881 179.848 338.023 173.989C332.166 168.13 322.668 168.13 316.811 173.989Z" fill="#F1CF8E"/>
<path d="M376.055 210.957V226.907C376.055 235.191 382.771 241.907 391.054 241.907C399.337 241.907 406.053 235.191 406.053 226.907V210.957C406.053 202.673 399.337 195.957 391.054 195.957C382.771 195.957 376.055 202.673 376.055 210.957Z" fill="#F1CF8E"/>
<path d="M444.085 173.989C438.227 179.847 438.227 189.344 444.085 195.203L455.363 206.482C461.219 212.34 470.718 212.341 476.575 206.482C482.433 200.624 482.433 191.127 476.575 185.268L465.297 173.989C459.44 168.13 449.942 168.13 444.085 173.989Z" fill="#F1CF8E"/>
<path d="M466.051 120.954C466.051 129.238 472.767 135.954 481.05 135.954H497C505.284 135.954 511.999 129.238 511.999 120.954C511.999 112.67 505.283 105.954 497 105.954H481.05C472.766 105.954 466.051 112.67 466.051 120.954Z" fill="#F1CF8E"/>
<path d="M465.297 67.919L476.575 56.64C482.433 50.782 482.433 41.285 476.575 35.426C470.718 29.567 461.22 29.567 455.363 35.426L444.085 46.705C438.227 52.563 438.227 62.06 444.085 67.919C449.941 73.777 459.44 73.778 465.297 67.919Z" fill="#F1CF8E"/>
</g>
<defs>
<clipPath id="clip0">
<rect width="512" height="512" fill="white"/>
</clipPath>
</defs>
</svg>
