<svg width="512" height="512" viewBox="0 0 512 512" fill="none" xmlns="http://www.w3.org/2000/svg">
<path d="M133.051 451.393C135.683 443.669 138.997 433.929 142.407 423.872C152.74 393.403 181.287 372.93 213.443 372.93H287.004C328.359 372.93 362.003 406.574 362.003 447.929V454.602C292.991 466.396 203.09 465.989 133.051 451.393ZM45.7672 70.892C59.9169 56.8193 78.6876 49.0724 98.6512 49.0724H98.6852C118.731 49.0814 137.569 56.8993 151.731 71.086L180.008 99.4124V149.886C180.008 149.886 130.889 92.6036 130.618 92.3316C122.118 83.8317 110.818 79.1518 98.7982 79.1518C86.7784 79.1518 75.4776 83.8327 66.9788 92.3316L56.53 102.78L35.7854 81.4728L45.7672 70.892ZM109.104 161.902C106.792 157.829 102.712 155.07 98.0712 154.442C93.4323 153.814 88.7634 155.389 85.4524 158.7L55.61 188.543C49.7631 194.39 40.2503 194.391 34.4024 188.543C28.5425 182.682 28.5395 173.196 34.4024 167.334L88.1914 113.545C91.0243 110.712 94.7913 109.152 98.7982 109.152C102.645 109.152 106.27 110.59 109.06 113.212L195.007 213.483V297.934C195.007 306.217 201.723 312.933 210.007 312.933H241.006V342.933H213.444C168.425 342.933 128.462 371.589 113.998 414.24C110.12 425.676 106.497 436.32 103.805 444.212C94.2223 441.47 84.6164 438.307 75.4016 434.714C75.3496 434.694 75.2986 434.674 75.2476 434.654C77.2026 428.889 77.0006 429.03 87.1744 399.738C115.096 319.343 146.743 228.223 109.104 161.902ZM256.005 492.928C319.206 492.928 390.327 485.405 449.54 461.868C489.199 446.12 506.214 429.92 507.518 428.623C513.424 422.813 513.503 413.316 507.693 407.411C501.912 401.535 492.483 401.433 486.556 407.162C486.541 407.176 486.493 407.22 486.399 407.306C484.981 408.586 474.454 417.722 452 428.164C451.866 289.458 452.299 297.148 451.625 289.094C465.362 295.68 482 307.808 482 327.931C482 336.215 488.716 342.931 496.999 342.931C505.283 342.931 511.999 336.215 511.999 327.931V222.933C511.999 189.85 485.084 162.934 452 162.934C425.342 162.934 402.699 180.416 394.906 204.513C380.536 197.115 364.249 192.934 347.002 192.934H216.905C216.905 192.934 212.206 187.452 210.006 184.885C210.006 163.568 210.006 93.2066 210.006 93.2066C210.006 89.2326 208.429 85.4217 205.622 82.6098L172.962 49.8914C153.136 30.0298 126.762 19.085 98.6982 19.073C98.6812 19.073 98.6682 19.073 98.6512 19.073C70.6067 19.073 44.2382 29.9948 24.4066 49.8274C24.3036 49.9304 24.2026 50.0344 24.1026 50.1404L4.09902 71.342C-1.41587 77.1879 -1.34287 86.3407 4.26302 92.0986L35.3154 123.995L13.1898 146.121C-4.39381 163.703 -4.39681 192.168 13.1898 209.754C30.7335 227.299 59.2789 227.299 76.8226 209.754L91.0583 195.52C107.611 249.452 81.8545 323.614 58.834 389.893C49.8401 415.787 48.4242 420.284 47.8262 422.044C32.3885 413.65 25.5406 407.245 25.4386 407.155C19.5267 401.432 10.0969 401.534 4.31602 407.411C-1.49287 413.317 -1.41387 422.814 4.49201 428.623C7.37496 431.486 11.6249 434.684 14.9678 437.006C77.1586 480.941 179.755 492.928 256.005 492.928ZM317.004 297.932V222.933H347.003C388.358 222.933 422.002 256.577 422.002 297.932V439.963C413.278 442.854 403.297 445.751 392.002 448.468V447.928C392.002 390.032 344.9 342.93 287.004 342.93H271.005V312.93H302.004C310.288 312.931 317.004 306.216 317.004 297.932ZM225.006 222.933H287.004V282.932H225.006V222.933ZM442.252 253.779C437.185 242.891 430.306 233.012 422.002 224.53V222.934C422.002 206.392 435.46 192.935 452.001 192.935C468.543 192.935 482.001 206.392 482.001 222.934V272.354C479.728 270.689 477.329 269.088 474.808 267.551C461.068 259.177 447.34 255.105 442.252 253.779Z" fill="#F1CF8E"/>
</svg>
