<svg width="512" height="512" viewBox="0 0 512 512" fill="none" xmlns="http://www.w3.org/2000/svg">
<g clip-path="url(#clip0)">
<path d="M357.398 197.028C360.327 199.957 364.166 201.422 368.004 201.422C371.842 201.422 375.682 199.958 378.61 197.028L449.321 126.317C455.179 120.459 455.179 110.962 449.321 105.104C443.464 99.246 433.966 99.246 428.108 105.104L357.397 175.815C351.541 181.673 351.541 191.17 357.398 197.028Z" fill="#73AD45"/>
<path d="M325.579 158.995C329.418 158.995 333.257 157.531 336.185 154.601L406.896 83.89C412.754 78.032 412.754 68.535 406.896 62.677C401.039 56.819 391.541 56.819 385.683 62.677L314.972 133.388C309.114 139.246 309.114 148.743 314.972 154.601C317.901 157.531 321.74 158.995 325.579 158.995Z" fill="#73AD45"/>
<path d="M411.064 333.282C400.756 322.973 387.34 317.635 373.805 317.236L312.568 256L329.136 239.432L336.207 246.503C344.979 255.276 356.503 259.662 368.026 259.662C379.55 259.662 391.073 255.276 399.846 246.503L498.842 147.508C516.386 129.963 516.386 101.414 498.842 83.869L428.13 13.158C410.584 -4.386 382.036 -4.386 364.491 13.158L265.496 112.153C247.951 129.698 247.951 158.247 265.496 175.792L272.567 182.863L256 199.432L234.561 177.993C238.337 167.662 240.312 156.639 240.312 145.312C240.312 119.937 230.43 96.08 212.487 78.137L168.865 34.515C139.729 5.378 96.795 -6.513 56.82 3.48C51.577 4.791 47.445 8.82 46.003 14.028C44.56 19.236 46.031 24.817 49.852 28.638L148.847 127.634C151.68 130.467 153.241 134.234 153.241 138.24C153.241 142.247 151.68 146.013 148.847 148.847C146.014 151.68 142.247 153.241 138.24 153.241C134.234 153.241 130.467 151.68 127.634 148.847L28.639 49.852C24.818 46.031 19.238 44.56 14.029 46.003C8.82002 47.445 4.79102 51.577 3.48002 56.82C-6.51398 96.795 5.37802 139.728 34.515 168.864L78.137 212.486C96.08 230.429 119.937 240.311 145.312 240.311C156.639 240.311 167.662 238.337 177.993 234.56L199.432 256L138.194 317.238C124.659 317.636 111.244 322.975 100.936 333.283L16.083 418.136C-5.36198 439.58 -5.36198 474.473 16.083 495.917C26.807 506.64 40.888 512 54.974 512C69.057 512 83.144 506.638 93.865 495.917L178.718 411.064C189.026 400.756 194.364 387.341 194.763 373.805L256 312.568L317.237 373.805C317.635 387.34 322.974 400.756 333.282 411.064L418.135 495.917C428.857 506.639 442.941 512 457.026 512C471.111 512 485.194 506.639 495.917 495.917C517.362 474.473 517.362 439.58 495.917 418.136L411.064 333.282ZM286.709 133.367L385.704 34.372C388.629 31.447 392.469 29.986 396.311 29.986C400.151 29.986 403.994 31.448 406.917 34.372L477.627 105.083C483.476 110.932 483.476 120.448 477.627 126.296L378.632 225.291C375.799 228.124 372.032 229.685 368.025 229.685C364.019 229.685 360.252 228.124 357.419 225.291L286.708 154.58C283.875 151.747 282.314 147.98 282.314 143.974C282.315 139.967 283.876 136.2 286.709 133.367ZM293.78 204.077L307.923 218.22L291.355 234.788L277.212 220.645L293.78 204.077ZM99.349 191.273L55.727 147.651C41.216 133.14 32.441 114.038 30.432 94.071L106.42 170.059C114.92 178.559 126.22 183.24 138.24 183.24C150.26 183.24 161.56 178.559 170.06 170.059C178.56 161.559 183.241 150.259 183.241 138.239C183.241 126.219 178.56 114.919 170.06 106.42L94.072 30.433C114.037 32.442 133.142 41.218 147.652 55.727L191.274 99.349C203.551 111.626 210.312 127.949 210.312 145.311C210.312 162.673 203.551 178.996 191.274 191.273C178.997 203.55 162.674 210.311 145.312 210.311C127.949 210.311 111.626 203.55 99.349 191.273ZM212.486 212.486C214.865 210.108 217.097 207.622 219.188 205.046L341.009 326.867C338.291 328.738 335.697 330.867 333.282 333.282C330.867 335.697 328.738 338.291 326.867 341.009L205.046 219.188C207.622 217.097 210.108 214.865 212.486 212.486ZM157.505 389.851L72.652 474.704C62.904 484.451 47.045 484.451 37.297 474.704C27.55 464.956 27.55 449.096 37.297 439.349L122.15 354.496C127.024 349.622 133.426 347.185 139.828 347.185C146.23 347.185 152.632 349.622 157.506 354.496C167.253 364.243 167.253 380.104 157.505 389.851ZM185.133 341.009C183.262 338.291 181.133 335.698 178.718 333.282C176.302 330.866 173.709 328.738 170.991 326.867L220.645 277.213L234.788 291.356L185.133 341.009ZM474.703 474.704C464.955 484.451 449.096 484.451 439.348 474.704L354.495 389.851C344.747 380.103 344.747 364.243 354.495 354.495C359.37 349.621 365.77 347.184 372.173 347.184C378.574 347.184 384.977 349.622 389.851 354.495L474.704 439.348C484.451 449.096 484.451 464.956 474.703 474.704Z" fill="#73AD45"/>
</g>
<defs>
<clipPath id="clip0">
<rect width="512" height="512" fill="white"/>
</clipPath>
</defs>
</svg>
