<svg width="512" height="512" viewBox="0 0 512 512" fill="none" xmlns="http://www.w3.org/2000/svg">
<path d="M421 158.111V185C421 193.284 427.716 200 436 200C444.284 200 451 193.284 451 185V158.111C462.398 155.222 472.876 149.1 480.978 140.35C492.542 127.862 498.426 110.967 497.122 93.997L494.024 53.732C491.706 23.602 466.22 0 436 0C405.78 0 380.294 23.602 377.977 53.732L374.879 93.997C373.574 110.967 379.458 127.862 391.023 140.35C399.124 149.1 409.602 155.222 421 158.111ZM404.791 96.298L407.889 56.032C409.011 41.435 421.359 30 436 30C450.641 30 462.989 41.435 464.111 56.033L467.209 96.298C467.886 105.09 464.958 113.496 458.967 119.966C456.616 122.505 453.927 124.589 451 126.193V105C451 96.716 444.284 90 436 90C427.716 90 421 96.716 421 105V126.193C418.073 124.589 415.385 122.505 413.033 119.966C407.042 113.496 404.114 105.09 404.791 96.298Z" fill="#73AD45"/>
<path d="M186 422H136C127.716 422 121 428.716 121 437C121 445.284 127.716 452 136 452H186C194.284 452 201 445.284 201 437C201 428.716 194.284 422 186 422Z" fill="#73AD45"/>
<path d="M262 190C262 181.716 255.284 175 247 175H207C198.716 175 192 181.716 192 190C192 198.284 198.716 205 207 205H247C255.284 205 262 198.284 262 190Z" fill="#73AD45"/>
<path d="M317 267H255C246.716 267 240 273.716 240 282C240 290.284 246.716 297 255 297H317C325.284 297 332 290.284 332 282C332 273.716 325.284 267 317 267Z" fill="#73AD45"/>
<path d="M218 87C218 78.716 211.284 72 203 72H153C144.716 72 138 78.716 138 87C138 95.284 144.716 102 153 102H203C211.284 102 218 95.284 218 87Z" fill="#73AD45"/>
<path d="M484.587 257.568C466.924 239.786 443.384 229.994 418.302 229.994C418.297 229.994 418.291 229.994 418.286 229.994H415.93C415.926 229.994 415.924 229.994 415.92 229.994C399.65 229.994 384.353 223.658 372.847 212.154C361.338 200.647 355 185.348 355 169.074V125C355 56.075 298.925 0 230 0H116C85.015 0 55.885 12.066 33.975 33.976C12.065 55.886 -0.000999938 85.017 6.21531e-08 116.001C6.21531e-08 126.537 1.417 136.954 4.21 147.028C3.778 149.222 3.456 151.455 3.281 153.731L0.183 193.996C-1.122 210.966 4.762 227.861 16.327 240.349C24.429 249.099 34.906 255.221 46.306 258.11V285C46.306 293.284 53.022 300 61.306 300C69.59 300 76.306 293.284 76.306 285V258.111C87.704 255.222 98.182 249.1 106.284 240.35C108.774 237.661 110.984 234.757 112.932 231.702C118.994 231.864 125.95 231.956 129.836 231.999C129.891 231.999 129.946 232 130.001 232C152.057 232 170.001 249.944 170.001 272C170.001 294.056 152.057 312 130.001 312H100.001C44.859 312 6.21531e-08 356.86 6.21531e-08 412C6.21531e-08 467.14 44.855 512 99.991 512H185.716C238.436 512 282.193 472.883 289.491 422.147H305.799C307.938 433.343 313.165 443.864 321.022 452.35C329.124 461.1 339.601 467.222 351 470.111V497C351 505.284 357.716 512 366 512C374.284 512 381 505.284 381 497V470.111C392.398 467.222 402.876 461.1 410.978 452.35C418.913 443.781 424.173 433.136 426.271 421.817C448.289 419.986 468.747 410.54 484.554 394.743C502.253 377.053 512 353.53 512 328.507V324.481C512 299.128 502.265 275.365 484.587 257.568ZM84.271 219.966C81.92 222.505 79.231 224.589 76.304 226.193V205C76.304 196.716 69.588 190 61.304 190C53.02 190 46.304 196.716 46.304 205V226.194C43.377 224.59 40.688 222.506 38.336 219.967C32.345 213.496 29.417 205.091 30.094 196.299L33.192 156.034C34.315 141.435 46.664 130 61.305 130C75.946 130 88.293 141.435 89.416 156.033L92.514 196.298C93.19 205.09 90.263 213.496 84.271 219.966ZM388.967 431.966C386.616 434.505 383.927 436.589 381 438.193V417C381 408.716 374.284 402 366 402C357.716 402 351 408.716 351 417V438.193C348.073 436.589 345.385 434.505 343.033 431.966C337.042 425.496 334.114 417.09 334.791 408.298L337.889 368.032C339.011 353.435 351.359 342 366 342C380.641 342 392.989 353.435 394.111 368.033L397.209 408.298C397.886 417.09 394.958 425.496 388.967 431.966ZM482 328.507C482 345.514 475.375 361.501 463.347 373.523C453.153 383.711 440.111 389.997 426.02 391.678L424.024 365.732C421.706 335.602 396.22 312 366 312C335.78 312 310.294 335.602 307.977 365.732L305.945 392.148H275.561C267.277 392.148 260.561 398.864 260.561 407.148C260.561 448.422 226.986 482.001 185.716 482.001H99.991C66.546 482.001 38.521 458.413 31.635 427.001H76C84.284 427.001 91 420.285 91 412.001C91 403.717 84.284 397.001 76 397.001H31.635C38.522 365.589 66.551 342.001 100 342.001H130C168.598 342.001 200 310.599 200 272.001C200 233.431 168.646 202.047 130.087 202.001C127.629 201.974 125.039 201.937 122.498 201.894C122.637 199.274 122.629 196.638 122.426 193.998L119.328 153.732C117.01 123.602 91.523 100 61.305 100C49.982 100 39.325 103.314 30.3 109.043C31.919 88.697 40.598 69.781 55.188 55.19C71.432 38.946 93.028 30 116 30H230C279.006 30 319.461 67.3 324.474 115H276C267.716 115 261 121.716 261 130C261 138.284 267.716 145 276 145H325V169.074C325 193.362 334.459 216.196 351.635 233.369C368.808 250.539 391.637 259.994 415.918 259.994H415.932H418.288H418.299C435.33 259.994 451.315 266.641 463.303 278.71C475.359 290.849 482 307.104 482 324.481V328.507Z" fill="#73AD45"/>
</svg>
