<svg width="512" height="512" viewBox="0 0 512 512" fill="none" xmlns="http://www.w3.org/2000/svg">
<g clip-path="url(#clip0)">
<path d="M444.425 344.885C424.24 329.117 394.943 329.118 374.76 344.885C365.429 352.175 351.359 352.174 342.03 344.885C332.973 337.809 322.079 333.919 310.998 333.194V179.29L511.975 179.462L512 149.464L454.99 149.415V92.0287C454.99 44.0591 415.964 5.03296 367.994 5.03296C320.024 5.03296 280.998 44.0591 280.998 92.0287V149.026H231.001V92.0287C231.001 44.0591 191.975 5.03296 144.005 5.03296C96.0353 5.03296 57.0092 44.0591 57.0092 92.0287V149.026C57.0092 149.126 59.7211 149.077 0.0249988 149.026L0 179.024L57.0102 179.073V349.726C49.3856 351.345 41.064 349.744 34.8463 344.885C25.0498 337.232 12.6794 333.017 0.0129994 333.017V363.016C6.01871 363.016 11.8294 364.972 16.3772 368.525C36.5622 384.293 65.8598 384.292 86.0428 368.525C95.3733 361.236 109.444 361.237 118.772 368.525C138.957 384.293 168.255 384.293 188.438 368.524C197.767 361.237 211.838 361.236 221.167 368.524C241.35 384.293 270.648 384.292 290.832 368.524C300.162 361.235 314.233 361.236 323.561 368.524C343.746 384.292 373.044 384.292 393.227 368.523C402.556 361.236 416.627 361.235 425.956 368.523C446.139 384.292 475.438 384.291 495.623 368.523C500.17 364.97 505.98 363.015 511.986 363.015V333.016C499.319 333.016 486.948 337.231 477.154 344.884C467.825 352.175 453.754 352.174 444.425 344.885ZM87.0088 243.021H280.999V277.02H87.0088V243.021ZM310.998 92.0287C310.998 60.6003 336.567 35.0315 367.995 35.0315C399.423 35.0315 424.992 60.6003 424.992 92.0287V149.026H310.998V92.0287ZM87.0088 92.0287C87.0088 60.6003 112.577 35.0315 144.006 35.0315C175.434 35.0315 201.003 60.6003 201.003 92.0287V149.026H87.0088V92.0287ZM280.999 179.265V213.024H87.0088V179.099L280.999 179.265ZM239.635 344.885C219.45 329.117 190.153 329.118 169.97 344.885C160.639 352.175 146.569 352.174 137.24 344.885C122.915 333.693 104 330.455 87.0088 335.15V307.018H280.999V339.371C277.986 340.925 275.091 342.757 272.365 344.886C263.035 352.175 248.966 352.174 239.635 344.885Z" fill="#73AD45"/>
<path d="M444.425 408.882C424.24 393.114 394.943 393.115 374.76 408.882C365.429 416.172 351.359 416.171 342.03 408.882C321.847 393.113 292.548 393.114 272.365 408.882C263.035 416.172 248.966 416.171 239.636 408.881C219.451 393.113 190.154 393.114 169.971 408.881C160.64 416.171 146.57 416.17 137.241 408.881C117.058 393.112 87.7586 393.113 67.5756 408.881C58.2461 416.17 44.1748 416.17 34.8472 408.881C25.0507 401.227 12.6803 397.013 0.013916 397.013V427.011C6.01962 427.011 11.8303 428.968 16.3781 432.521C36.5631 448.289 65.8607 448.288 86.0437 432.521C95.3743 425.231 109.445 425.232 118.773 432.521C138.958 448.289 168.256 448.289 188.439 432.52C197.768 425.232 211.839 425.231 221.168 432.52C241.351 448.289 270.649 448.288 290.833 432.52C300.163 425.23 314.234 425.231 323.562 432.52C343.747 448.288 373.045 448.288 393.228 432.519C402.557 425.231 416.628 425.23 425.957 432.519C446.14 448.288 475.439 448.287 495.624 432.519C500.171 428.966 505.981 427.01 511.987 427.01V397.012C499.32 397.012 486.949 401.226 477.155 408.88C467.825 416.172 453.754 416.171 444.425 408.882Z" fill="#73AD45"/>
<path d="M444.425 471.5C424.24 455.732 394.943 455.733 374.76 471.5C365.429 478.79 351.359 478.789 342.03 471.5C321.847 455.731 292.548 455.732 272.365 471.5C263.035 478.79 248.966 478.789 239.636 471.499C219.451 455.731 190.154 455.732 169.971 471.499C160.64 478.789 146.57 478.788 137.241 471.499C117.058 455.73 87.7586 455.731 67.5756 471.499C58.2471 478.788 44.1758 478.789 34.8472 471.499C25.0507 463.845 12.6803 459.631 0.013916 459.631V489.629C6.01962 489.629 11.8303 491.586 16.3781 495.139C36.5631 510.907 65.8607 510.906 86.0437 495.139C95.3743 487.849 109.445 487.85 118.773 495.139C138.958 510.907 168.256 510.906 188.439 495.138C197.768 487.85 211.839 487.849 221.168 495.138C241.351 510.907 270.649 510.906 290.833 495.138C300.163 487.848 314.234 487.849 323.562 495.138C343.747 510.906 373.045 510.905 393.228 495.137C402.557 487.849 416.628 487.848 425.957 495.137C446.14 510.906 475.439 510.905 495.624 495.137C500.171 491.584 505.981 489.628 511.987 489.628V459.63C499.32 459.63 486.949 463.844 477.155 471.498C467.825 478.79 453.754 478.79 444.425 471.5Z" fill="#73AD45"/>
</g>
<defs>
<clipPath id="clip0">
<rect width="512" height="512" fill="white"/>
</clipPath>
</defs>
</svg>
