<svg width="512" height="512" viewBox="0 0 512 512" fill="none" xmlns="http://www.w3.org/2000/svg">
<path d="M397 231H351.681C341.556 231 332.498 224.961 328.604 215.616L288.86 120.231C286.297 114.079 279.982 110.353 273.358 111.092C253.298 113.32 233.575 107.605 217.816 94.998C202.057 82.391 192.151 64.402 189.922 44.344C189.315 38.881 185.768 34.187 180.678 32.111C175.587 30.035 169.77 30.91 165.515 34.391L90.375 95.869C77.706 106.234 67.133 118.678 58.949 132.853L6.04896 224.481C0.0389628 234.891 -1.55804 247.018 1.55296 258.628C4.66396 270.238 12.11 279.942 22.52 285.952L239.025 410.952C250.411 417.526 263.378 421 276.525 421H467C491.813 421 512 400.813 512 376V346C512 282.589 460.411 231 397 231ZM480.648 331H412V262.352C446.863 268.589 474.411 296.137 480.648 331ZM109.372 119.088L166.017 72.743C172.585 90.5369 183.883 106.27 199.076 118.424C217.976 133.544 240.955 141.569 264.81 141.568C264.957 141.568 265.103 141.568 265.25 141.567L275.072 165.139L247.515 181.049C240.341 185.191 237.883 194.365 242.025 201.539C244.803 206.351 249.845 209.041 255.029 209.041C257.573 209.041 260.153 208.393 262.515 207.029L286.707 193.062L298.342 220.986L277.515 233.01C270.341 237.152 267.883 246.326 272.025 253.5C274.803 258.312 279.845 261.002 285.029 261.002C287.573 261.002 290.153 260.354 292.515 258.99L314.33 246.395C324.282 255.61 337.504 261 351.682 261H382V331H280.545L131.55 244.978C139.903 224.194 141.375 201.367 135.576 179.332C130.012 158.187 118.263 139.695 101.863 125.872C104.251 123.503 106.749 121.234 109.372 119.088ZM83.742 149.912C106.098 169.755 114.581 201.436 105.172 229.749L54.529 200.51L83.742 149.912ZM467 391H276.525C268.637 391 260.857 388.915 254.025 384.971L37.52 259.971C34.05 257.968 31.568 254.733 30.531 250.863C29.494 246.993 30.026 242.95 32.03 239.481L39.53 226.491L269.027 358.991C271.307 360.308 273.894 361.001 276.527 361.001H482V376.001C482 384.271 475.271 391 467 391Z" fill="#73AD45"/>
<path d="M85 451H15C6.716 451 0 457.716 0 466C0 474.284 6.716 481 15 481H85C93.284 481 100 474.284 100 466C100 457.716 93.284 451 85 451Z" fill="#73AD45"/>
<path d="M397 451H165C156.716 451 150 457.716 150 466C150 474.284 156.716 481 165 481H397C405.284 481 412 474.284 412 466C412 457.716 405.284 451 397 451Z" fill="#73AD45"/>
<path d="M125.014 391H15.014C6.73004 391 0.0140381 397.716 0.0140381 406C0.0140381 414.284 6.73004 421 15.014 421H125.014C133.298 421 140.014 414.284 140.014 406C140.014 397.716 133.299 391 125.014 391Z" fill="#73AD45"/>
<path d="M497 451H457C448.716 451 442 457.716 442 466C442 474.284 448.716 481 457 481H497C505.284 481 512 474.284 512 466C512 457.716 505.284 451 497 451Z" fill="#73AD45"/>
</svg>
