<svg width="512" height="512" viewBox="0 0 512 512" fill="none" xmlns="http://www.w3.org/2000/svg">
<path d="M158.602 304.427C166.205 303.697 172.152 297.295 172.152 289.5C172.152 281.216 165.436 274.5 157.152 274.5H152.549L107.692 179.204C142.171 160.76 138.406 110.156 101.539 97.08V42C101.539 33.716 94.823 27 86.539 27C78.255 27 71.539 33.716 71.539 42V97.08C34.81 110.107 30.824 160.617 65.295 179.157L19.67 274.5H15C6.716 274.5 0 281.216 0 289.5C0 297.669 6.534 304.3 14.659 304.483C21.921 405.309 101.845 485 199.045 485H312.956C338.538 485 360.999 478.295 360.999 478.295C271.234 473.121 167.074 417.289 158.602 304.427ZM86.54 124.5C94.811 124.5 101.54 131.229 101.54 139.5C101.54 147.771 94.812 154.5 86.54 154.5C78.268 154.5 71.54 147.771 71.54 139.5C71.54 131.229 78.269 124.5 86.54 124.5ZM86.435 204.482L119.393 274.5H52.928L86.435 204.482Z" fill="#73AD45"/>
<path d="M512 289.5C512 281.216 505.284 274.5 497 274.5H492.397L447.349 178.798C481.196 159.869 476.886 110 440.46 97.081V42C440.46 33.716 433.744 27 425.46 27C417.176 27 410.46 33.716 410.46 42V97.08C373.41 110.221 369.736 161.431 404.961 179.539L359.518 274.5H354.848C346.564 274.5 339.848 281.216 339.848 289.5C339.848 297.27 345.756 303.659 353.324 304.423C348.956 355.852 322.245 401.947 282.058 429.257C338.552 456.462 412.182 447.808 420.697 448.295C463.798 415.518 493.056 363.638 497.32 304.484C505.455 304.312 512 297.676 512 289.5ZM425.46 124.5C433.731 124.5 440.46 131.229 440.46 139.5C440.46 147.771 433.732 154.5 425.46 154.5C417.189 154.5 410.46 147.771 410.46 139.5C410.46 131.229 417.189 124.5 425.46 124.5ZM426.282 204.482L459.24 274.5H392.775L426.282 204.482Z" fill="#73AD45"/>
</svg>
