<svg width="512" height="512" viewBox="0 0 512 512" fill="none" xmlns="http://www.w3.org/2000/svg">
<g clip-path="url(#clip0)">
<path d="M512 236.168C512 219.632 498.548 206.18 482.013 206.18H293.801L288.793 186.149H366.006C382.542 186.149 395.994 172.698 395.994 156.162V36.1562C395.994 19.6205 382.542 6.1687 366.006 6.1687H145.994C129.458 6.1687 116.006 19.6205 116.006 36.1562V156.163C116.006 172.699 129.459 186.15 145.994 186.15H223.61L218.603 206.181H29.9875C13.4518 206.18 0 219.633 0 236.169C0 249.45 8.68127 260.735 20.6641 264.665V475.874C20.6641 492.394 34.1039 505.832 50.6236 505.832C67.1432 505.832 80.5831 492.393 80.5831 475.874V306.103H312.271V415.958C312.271 421.473 316.742 425.944 322.257 425.944H432.109V475.874C432.109 492.394 445.549 505.832 462.068 505.832C478.588 505.832 492.028 492.393 492.028 475.874V264.43C503.652 260.298 512 249.192 512 236.168ZM135.979 156.163V36.1562C135.979 30.6346 140.472 26.1417 145.994 26.1417H366.006C371.528 26.1417 376.021 30.6346 376.021 36.1562V156.163C376.021 161.684 371.528 166.177 366.006 166.177H145.994C140.472 166.177 135.979 161.684 135.979 156.163ZM244.198 186.15H268.204L273.213 206.181H239.191L244.198 186.15ZM50.6236 485.859C45.117 485.859 40.6371 481.38 40.6371 475.874V266.156H60.6101V475.874C60.6101 481.379 56.1301 485.859 50.6236 485.859ZM80.5831 286.13V266.156H211.066C216.581 266.156 221.052 261.685 221.052 256.17C221.052 250.654 216.581 246.183 211.066 246.183H29.9875C24.4659 246.183 19.973 241.69 19.973 236.169C19.973 230.647 24.4659 226.154 29.9875 226.154H482.014C487.535 226.154 492.028 230.647 492.028 236.169C492.028 241.69 487.535 246.183 482.014 246.183H300.943C295.428 246.183 290.957 250.654 290.957 256.17C290.957 261.685 295.428 266.156 300.943 266.156H312.271V286.13H80.5831ZM472.055 326.077H332.244V266.156H472.055V326.077ZM332.244 346.05H472.055V405.971H332.244V346.05ZM462.067 485.859C456.561 485.859 452.081 481.38 452.081 475.874V425.944H472.054V475.874C472.055 481.379 467.575 485.859 462.067 485.859Z" fill="#73AD45"/>
<path d="M402.145 296.117H402.152C407.668 296.117 412.136 291.646 412.136 286.13C412.136 280.615 407.661 276.144 402.145 276.144C396.63 276.144 392.159 280.615 392.159 286.13C392.159 291.646 396.63 296.117 402.145 296.117Z" fill="#73AD45"/>
<path d="M402.145 356.038C396.63 356.038 392.159 360.509 392.159 366.024C392.159 371.54 396.63 376.011 402.145 376.011H402.152C407.668 376.011 412.136 371.54 412.136 366.024C412.136 360.509 407.661 356.038 402.145 356.038Z" fill="#73AD45"/>
<path d="M256.008 246.183H256.001C250.486 246.183 246.019 250.654 246.019 256.17C246.019 261.685 250.493 266.156 256.008 266.156C261.524 266.156 265.995 261.685 265.995 256.17C265.995 250.654 261.523 246.183 256.008 246.183Z" fill="#73AD45"/>
</g>
<defs>
<clipPath id="clip0">
<rect width="512" height="512" fill="white"/>
</clipPath>
</defs>
</svg>
