<svg width="512" height="512" viewBox="0 0 512 512" fill="none" xmlns="http://www.w3.org/2000/svg">
<path d="M0 373.334L0 458.667H149.333V373.334H0Z" fill="#552676"/>
<path d="M0 266.667L0 352H341.333V266.667H0Z" fill="#552676"/>
<path d="M362.667 266.667V352H512V266.667H362.667Z" fill="#552676"/>
<path d="M0 160L0 245.333H192V160H0Z" fill="#552676"/>
<path d="M0 138.667L288 138.667C293.891 138.667 298.667 133.891 298.667 128V64C298.667 58.109 293.891 53.333 288 53.333L0 53.333L0 138.667Z" fill="#552676"/>
<path d="M213.333 160V245.333L512 245.333V160H213.333Z" fill="#552676"/>
<path d="M416 458.667C421.891 458.667 426.667 453.891 426.667 448V384C426.667 378.109 421.891 373.333 416 373.333H170.667V458.667H416Z" fill="#552676"/>
</svg>
