<svg width="480" height="480" viewBox="0 0 480 480" fill="none" xmlns="http://www.w3.org/2000/svg">
<path d="M240 0C107.453 0 0 107.453 0 240C0 372.547 107.453 480 240 480C372.547 480 480 372.547 480 240C479.852 107.516 372.484 0.148438 240 0ZM248.566 69.1914L332 35.8398C341.469 40.125 350.629 45.0625 359.414 50.6172L359.633 50.7539C368.266 56.2227 376.516 62.2734 384.328 68.8633L385 69.4492C388.504 72.4336 391.91 75.5234 395.223 78.7109C395.641 79.1211 396.078 79.5117 396.496 79.9297C399.969 83.3203 403.332 86.8164 406.586 90.4141C406.855 90.7188 407.113 91.0391 407.383 91.3438C410.238 94.543 412.984 97.8555 415.648 101.223C416.289 102.023 416.93 102.824 417.551 103.625C420.441 107.367 423.238 111.176 425.879 115.105L409.246 185.809L327.414 213.09L248.586 150.016L248.566 69.1914ZM62.4414 103.672C63.0625 102.871 63.6953 102.07 64.3359 101.273C66.9687 97.9336 69.6914 94.6758 72.5039 91.4961C72.8086 91.1602 73.0898 90.8164 73.3906 90.4805C76.625 86.875 79.9727 83.3828 83.4414 80C83.8398 79.6094 84.2383 79.1992 84.6562 78.8398C87.9414 75.6719 91.3203 72.6016 94.793 69.6328L95.5938 68.9609C103.336 62.418 111.508 56.4062 120.055 50.9609L120.367 50.7617C129.102 45.2187 138.203 40.2891 147.617 36L231.434 69.1914V149.992L152.602 213.055L70.7695 185.824L54.1367 115.121C56.8008 111.199 59.5664 107.398 62.4414 103.672ZM52.8008 362.762C50.4492 359.176 48.1992 355.523 46.0547 351.801L45.5352 350.902C43.4023 347.199 41.3828 343.434 39.4805 339.609L39.4141 339.488C35.4063 331.441 31.8867 323.16 28.8789 314.688V314.609C27.457 310.609 26.1602 306.512 24.9609 302.391L24.5273 300.871C23.4297 297 22.4336 293.086 21.543 289.129C21.4648 288.742 21.3672 288.375 21.2891 287.992C19.3242 279.055 17.9141 270.008 17.0625 260.895L65.9023 202.289L147.168 229.375L170.754 323.711L132 375.273L52.8008 362.762ZM293.273 457.543C289.273 458.535 285.168 459.391 281.062 460.16C280.488 460.273 279.902 460.367 279.328 460.473C275.832 461.098 272.297 461.633 268.754 462.07C267.809 462.191 266.871 462.32 265.93 462.434C262.641 462.816 259.32 463.105 255.992 463.344C254.945 463.414 253.91 463.52 252.863 463.586C248.609 463.848 244.32 464 240 464C236.043 464 232.109 463.895 228.199 463.688C227.727 463.688 227.273 463.609 226.801 463.574C223.32 463.375 219.855 463.113 216.398 462.777L216 462.703C208.426 461.883 200.895 460.68 193.441 459.105L146.121 385.016L184.266 334.152H295.734L334.504 385.352L293.273 457.543ZM458.77 288C458.688 288.383 458.594 288.754 458.512 289.137C457.617 293.09 456.621 297.004 455.527 300.879L455.098 302.398C453.895 306.52 452.602 310.602 451.176 314.617V314.695C448.168 323.168 444.652 331.449 440.641 339.496L440.574 339.617C438.66 343.445 436.645 347.211 434.52 350.91L434 351.809C431.867 355.543 429.621 359.188 427.266 362.754L348.336 375.199L309.312 323.68L332.887 229.367L414.152 202.281L462.992 260.887C462.145 270.004 460.734 279.059 458.77 288Z" fill="#552676"/>
</svg>
