<svg width="512" height="512" viewBox="0 0 512 512" fill="none" xmlns="http://www.w3.org/2000/svg">
<path d="M276 392C270.48 392 266 396.48 266 402C266 407.52 270.48 412 276 412C281.52 412 286 407.52 286 402C286 396.48 281.52 392 276 392Z" fill="#00FAC2"/>
<path d="M482 452H481.552C499.962 437.082 512 415.325 512 392C512 358.218 490.621 327.916 458.802 316.598C458.759 316.583 458.716 316.568 458.673 316.553L373.194 287.45L404.63 126H416C443.57 126 466 103.57 466 76V30C466 13.458 452.542 0 436 0C419.425 0 406 13.425 406 30V66H356C339.458 66 326 79.458 326 96C326 108.174 333.421 118.78 343.974 123.453L315.897 267.942L173.487 219.456C165.119 216.482 156.443 214.396 147.624 213.203L130.127 146H162.93C172.829 146 182.138 142.144 189.141 135.142C196.144 128.139 200 118.83 200 108.93C200 90.742 186.974 75.365 169.024 72.367C47.12 52.274 53.514 52.61 46.61 52.61C20.909 52.61 0 73.56 0 99.31C0 125.055 20.945 146 46.69 146H67.936L87.068 219.271C35.336 237.321 0 286.436 0 342C0 387.87 24.008 428.812 60.69 452H30C13.426 452 0 465.424 0 482C0 498.542 13.458 512 30 512H482C498.575 512 512 498.575 512 482C512 465.458 498.542 452 482 452ZM356 86H416C421.522 86 426 81.522 426 76V30C426 24.481 430.479 20 436 20C441.514 20 446 24.486 446 30V76C446 92.542 432.542 106 416 106C404.19 106 368.805 106 356.415 106C356.095 105.974 355.778 105.964 355.462 105.969C350.215 105.694 346 101.297 346 96C346 90.486 350.486 86 356 86ZM363.852 126H384.255L354.086 280.944L335.007 274.448L363.852 126ZM46.69 126C31.973 126 20 114.026 20 99.31C20 84.588 31.937 72.61 46.61 72.61C50.7 72.61 45.702 72.218 165.733 92.093C174 93.475 180 100.555 180 108.93C180 113.488 178.224 117.775 174.999 120.999C171.774 124.224 167.488 126 162.93 126H46.69V126ZM126.658 212.054C119.835 212.227 113.061 212.935 106.403 214.158L88.607 146H109.46L126.658 212.054ZM20 342C20 292.147 53.605 248.425 101.733 235.673C122.375 230.176 145.4 230.683 166.845 238.321C166.889 238.337 166.933 238.351 166.977 238.367L452.163 335.464C475.993 343.972 492 366.684 492 392C492 423.395 460.558 450.986 426.029 451L115.754 451.092C61.122 444.029 20 397.234 20 342ZM482 492H30C24.486 492 20 487.514 20 482C20 476.479 24.479 472 30 472C38.364 472 392.062 472 482 472C487.514 472 492 476.486 492 482C492 487.519 487.521 492 482 492Z" fill="#00FAC2"/>
<path d="M376 332C348.43 332 326 354.43 326 382C326 409.57 348.43 432 376 432C403.57 432 426 409.57 426 382C426 354.43 403.57 332 376 332ZM376 412C359.458 412 346 398.542 346 382C346 365.458 359.458 352 376 352C392.542 352 406 365.458 406 382C406 398.542 392.542 412 376 412Z" fill="#00FAC2"/>
<path d="M236 392H194.142L186.066 383.924C195.104 371.882 200 357.317 200 342C200 303.402 168.598 272 130 272C91.402 272 60 303.402 60 342C60 380.598 91.402 412 130 412C145.315 412 159.879 407.106 171.923 398.066L182.929 409.072C184.804 410.947 187.348 412.001 190 412.001H236C241.522 412.001 246 407.523 246 402.001C246 396.479 241.522 392 236 392ZM171.722 369.58L137.071 334.929C133.166 331.025 126.834 331.025 122.929 334.929C119.024 338.834 119.024 345.166 122.929 349.072L157.579 383.722C149.465 389.106 139.954 392 130 392C102.43 392 80 369.57 80 342C80 314.43 102.43 292 130 292C157.57 292 180 314.43 180 342C180 351.955 177.105 361.468 171.722 369.58Z" fill="#00FAC2"/>
</svg>
