<svg width="512" height="512" viewBox="0 0 512 512" fill="none" xmlns="http://www.w3.org/2000/svg">
<path d="M428.847 22.809C420.929 8.74 405.827 0 389.433 0H256.961C232.148 0 211.961 20.187 211.961 45V105C211.961 129.813 232.148 150 256.961 150H346.961C355.232 150 361.961 156.729 361.961 165V282.833C318.71 271.009 273.118 269.548 229.291 278.463C195.898 246.51 148.603 233.511 101.374 245.32C54.152 257.127 14.961 295.662 3.74402 343.626C-5.90198 384.884 3.50202 427.381 29.548 460.219C55.647 493.126 94.434 512 135.961 512C331.776 512 467.324 437.594 503.669 419.417C508.751 416.876 511.961 411.682 511.961 406V340.928C511.961 229.416 483.22 119.412 428.847 22.809V22.809ZM481.961 396.757C433.23 421.303 309.867 482 135.961 482C103.647 482 73.428 467.266 53.051 441.575C32.731 415.955 25.406 382.743 32.956 350.455C41.438 314.177 71.858 283.622 108.65 274.422C138.858 266.868 169.143 272.034 193.598 288.175C181.902 292.194 170.426 296.996 159.253 302.582C151.843 306.287 148.84 315.297 152.545 322.707C156.249 330.116 165.259 333.12 172.669 329.415C243.922 293.789 328.998 293.788 400.253 329.415C407.675 333.127 416.679 330.103 420.377 322.707C424.082 315.297 421.079 306.287 413.669 302.582C406.55 299.022 399.305 295.787 391.961 292.863V165C391.961 140.187 371.774 120 346.961 120H331.961V75C331.961 66.716 325.245 60 316.961 60H286.961C278.677 60 271.961 66.716 271.961 75C271.961 83.284 278.677 90 286.961 90H301.961V120H256.961C248.69 120 241.961 113.271 241.961 105V45C241.961 36.729 248.69 30 256.961 30H389.434C395.007 30 400.092 32.883 402.705 37.523C454.556 129.644 481.962 234.559 481.962 340.928V396.757H481.961Z" fill="#00FAC2"/>
</svg>
