<svg width="512" height="512" viewBox="0 0 512 512" fill="none" xmlns="http://www.w3.org/2000/svg">
<g clip-path="url(#clip0)">
<path d="M487.946 176.08C487.946 167.246 480.784 160.084 471.949 160.084H431.224C420.73 44.1907 301.445 -30.2439 192.518 11.9272C184.28 15.1165 180.187 24.3813 183.376 32.6194C186.566 40.8585 195.831 44.9505 204.069 41.7622C298.067 5.36977 399.966 75.0674 399.966 176.08C399.966 255.463 335.382 320.046 256 320.046C174.484 320.046 108.932 252.003 112.142 170.539C112.748 155.113 93.1662 147.828 83.5644 160.084H40.0506C31.2167 160.084 24.0544 167.246 24.0544 176.08C24.0544 300.603 121.145 399.43 240.004 407.474V480.009H184.017C175.183 480.009 168.021 487.171 168.021 496.005C168.021 504.839 175.183 512.001 184.017 512.001H327.983C336.818 512.001 343.979 504.839 343.979 496.005C343.979 487.171 336.818 480.009 327.983 480.009H271.996V407.474C390.94 399.423 487.946 300.526 487.946 176.08V176.08ZM56.6807 192.076H80.7761C88.8852 281.631 164.368 352.039 256 352.039C347.632 352.039 423.115 281.631 431.224 192.076H455.319C447.144 294.881 360.87 376.033 256 376.033C151.13 376.033 64.8558 294.881 56.6807 192.076V192.076Z" fill="#00FAC2"/>
<path d="M64.045 112.095C99.3267 112.095 128.03 140.798 128.03 176.08C128.03 184.914 135.192 192.076 144.026 192.076C152.86 192.076 160.022 184.914 160.022 176.08C160.022 140.776 188.588 112.095 224.007 112.095C232.841 112.095 240.004 104.932 240.004 96.0985C240.004 87.2645 232.841 80.1022 224.007 80.1022C188.704 80.1022 160.022 51.5369 160.022 16.1172C160.022 7.28329 152.86 0.120972 144.026 0.120972C135.192 0.120972 128.03 7.28329 128.03 16.1172C128.03 51.4109 99.4687 80.1022 64.045 80.1022C55.2111 80.1022 48.0487 87.2645 48.0487 96.0985C48.0487 104.932 55.2111 112.095 64.045 112.095V112.095ZM144.027 69.2208C151.014 79.6973 160.173 88.9442 170.904 96.0985C160.295 103.173 151.073 112.393 143.992 123.026C136.904 112.381 127.744 103.221 117.098 96.1325C127.361 89.2971 136.707 80.1982 144.027 69.2208Z" fill="#00FAC2"/>
<path d="M300.677 100.783L180.705 220.755C174.458 227.003 174.458 237.13 180.705 243.378C186.952 249.625 197.08 249.625 203.327 243.378L323.298 123.406C329.546 117.159 329.546 107.031 323.298 100.783C317.052 94.5359 306.923 94.5359 300.677 100.783Z" fill="#00FAC2"/>
<path d="M308.675 180.765L260.686 228.753C254.438 235.001 254.438 245.129 260.686 251.376C266.932 257.623 277.061 257.623 283.308 251.376L331.296 203.387C337.544 197.14 337.544 187.012 331.296 180.765C325.05 174.518 314.921 174.518 308.675 180.765V180.765Z" fill="#00FAC2"/>
</g>
<defs>
<clipPath id="clip0">
<rect width="512" height="512" fill="white"/>
</clipPath>
</defs>
</svg>
