<svg width="512" height="512" viewBox="0 0 512 512" fill="none" xmlns="http://www.w3.org/2000/svg">
<path d="M511.971 171.881C509.641 55.5336 367.665 -30.2115 256 67.4285C144.411 -30.1485 2.35963 55.4766 0.0290576 171.881C-0.825153 214.529 17.2483 255.59 52.2929 290.626C52.3879 290.726 123.428 361.377 245.415 482.701C251.269 488.523 260.729 488.524 266.585 482.701L459.707 290.626C494.752 255.591 512.824 214.529 511.971 171.881ZM256 450.901L91.2235 287.019H143.944C149.216 287.019 154.101 284.253 156.813 279.735L168.331 260.542L211.322 328.082C217.645 338.017 232.49 337.119 237.546 326.449L296.876 201.228L338.832 279.129C341.45 283.988 346.524 287.02 352.046 287.02H420.775L256 450.901ZM449.806 257.011H361.011L309.233 160.877C303.429 150.1 287.732 150.434 282.458 161.567L222.055 289.05L180.617 223.951C174.576 214.455 160.775 214.813 155.088 224.286L135.448 257.012H62.1974C40.52 230.947 29.4473 202 30.0374 172.482C31.9109 78.9284 151.165 4.38002 245.388 98.5792C251.244 104.434 260.752 104.439 266.612 98.5792C386.914 -21.6964 552.304 133.786 449.806 257.011Z" fill="#00FAC2"/>
</svg>
