<svg width="512" height="512" viewBox="0 0 512 512" fill="none" xmlns="http://www.w3.org/2000/svg">
<g clip-path="url(#clip0)">
<path d="M511.311 356.224L500.892 297.136C496.583 272.699 473.19 256.325 448.761 260.634L433.989 263.239L432.595 255.334C448.47 241.972 456.984 220.886 453.114 198.941C447.356 166.289 416.268 144.509 383.607 150.271C378.981 151.086 374.499 152.461 370.19 154.379C352.951 137.391 328.086 129.42 303.537 133.75C284.185 137.162 267.289 148.08 256.06 163.512C244.888 147.999 228.06 137.205 208.461 133.75C184.304 129.489 159.732 137.524 142.628 154.54C138.07 152.59 133.222 151.122 128.392 150.27C95.8092 144.522 64.6302 166.358 58.8852 198.94C55.0192 220.861 63.5212 241.964 79.4042 255.333L78.0102 263.238L63.2382 260.633C38.7512 256.311 15.4272 272.639 11.1082 297.135L0.693214 356.225C-3.62579 380.717 12.6982 404.036 37.1952 408.356L51.9672 410.961L49.3622 425.733C45.0532 450.17 61.4282 473.555 85.8852 477.867L205.04 498.7C207.672 499.164 210.29 499.388 212.875 499.388C232.635 499.387 250.358 486.282 256.002 467.128C262.379 488.775 284.195 502.715 306.944 498.703L426.14 477.861C450.577 473.552 466.952 450.167 462.643 425.73L460.038 410.958L474.809 408.354C499.245 404.045 515.619 380.659 511.311 356.224ZM57.1762 381.416L42.4042 378.812C34.2392 377.371 28.7962 369.599 30.2362 361.434L40.6552 302.345C42.0892 294.215 49.8682 288.741 58.0322 290.178L72.8042 292.783C70.9192 303.475 59.5212 368.116 57.1762 381.416ZM88.4312 204.151C91.3042 187.86 106.896 176.946 123.185 179.816C128.239 180.707 133.405 182.878 137.006 185.623C143.805 190.807 153.588 189.268 158.454 182.202C168.454 167.681 186.04 160.261 203.255 163.296C213.457 165.095 222.391 170.245 228.957 177.677C199.706 185.938 180.83 215.266 186.219 245.827C186.584 247.899 187.059 249.933 187.626 251.929C176.56 249.977 166.639 243.845 159.692 234.662C157.215 231.388 153.505 229.272 149.426 228.808C145.345 228.342 141.256 229.571 138.107 232.204C131.301 237.894 121.588 240.461 112.764 238.906C96.4382 236.025 85.5532 220.482 88.4312 204.151ZM227.625 456.988C226.188 465.134 218.391 470.588 210.227 469.152L91.0732 448.318C82.9272 446.881 77.4692 439.086 78.9062 430.941C82.0452 413.139 101.659 301.904 104.953 283.221C104.953 283.219 104.953 283.218 104.954 283.216L107.557 268.449C120.314 270.699 133.624 268.706 145.17 263.087C159.151 275.868 177.068 282.612 195.343 282.612C199.278 282.612 203.199 282.283 207.095 281.648C212.28 285.92 218.083 289.359 224.791 291.812L240.771 382.44L227.625 456.988ZM215.762 240.615C212.889 224.324 223.806 208.734 240.097 205.861C244.59 205.07 249.311 205.43 254.13 206.933C258.047 208.154 262.294 207.718 265.882 205.725C269.471 203.733 272.084 200.357 273.116 196.384C277.546 179.319 291.533 166.331 308.749 163.295C326.232 160.215 344.64 167.81 354.551 182.202C356.878 185.582 360.489 187.86 364.541 188.507C368.596 189.152 372.734 188.111 375.998 185.624C380.014 182.562 384.328 180.608 388.819 179.816C405.147 176.939 420.694 187.82 423.572 204.151C426.453 220.477 415.569 236.025 399.238 238.904C390.667 240.413 381.796 237.973 374.894 232.202C371.745 229.569 367.655 228.343 363.576 228.806C359.497 229.271 355.787 231.387 353.31 234.66C346.661 243.45 335.845 249.905 324.377 251.927C313.309 253.875 301.891 251.508 292.223 245.255C285.039 240.61 275.405 242.902 271.1 250.326C266.587 258.109 259.085 263.439 250.516 264.95C234.228 267.819 218.635 256.906 215.762 240.615ZM420.952 448.314L301.756 469.156C293.607 470.588 285.815 465.134 284.378 456.989L255.726 294.496C268.274 292.284 279.645 286.093 288.364 276.963C301.394 282.327 315.633 283.932 329.587 281.472C343.835 278.96 357.156 272.455 367.68 263.086C379.021 268.721 391.859 270.668 404.447 268.448C409.786 298.728 426.43 393.114 433.1 430.94C434.535 439.086 429.077 446.882 420.952 448.314ZM469.6 378.811L454.829 381.415L439.2 292.783L453.971 290.179C462.115 288.746 469.911 294.201 471.348 302.347L481.767 361.435C483.204 369.58 477.746 377.375 469.6 378.811Z" fill="#00FAC2"/>
<path d="M256.002 12.609C247.718 12.609 241.002 19.325 241.002 27.609V57.609C241.002 65.893 247.718 72.609 256.002 72.609C264.286 72.609 271.002 65.893 271.002 57.609V27.609C271.002 19.324 264.286 12.609 256.002 12.609Z" fill="#00FAC2"/>
<path d="M337.214 51.395C331.357 45.537 321.859 45.537 316.002 51.395L294.789 72.608C288.931 78.466 288.931 87.963 294.789 93.821C297.718 96.75 301.557 98.215 305.395 98.215C309.233 98.215 313.073 96.751 316.001 93.821L337.214 72.608C343.072 66.75 343.072 57.253 337.214 51.395Z" fill="#00FAC2"/>
<path d="M217.214 72.608L196.001 51.395C190.144 45.537 180.646 45.537 174.789 51.395C168.931 57.253 168.931 66.75 174.789 72.608L196.002 93.821C198.931 96.75 202.77 98.215 206.608 98.215C210.446 98.215 214.286 96.751 217.214 93.821C223.072 87.963 223.072 78.466 217.214 72.608Z" fill="#00FAC2"/>
</g>
<defs>
<clipPath id="clip0">
<rect width="511.999" height="511.999" fill="white"/>
</clipPath>
</defs>
</svg>
