<svg width="512" height="512" viewBox="0 0 512 512" fill="none" xmlns="http://www.w3.org/2000/svg">
<g clip-path="url(#clip0)">
<path d="M457.13 126.671C460.98 122.643 462.063 116.697 459.871 111.587C457.678 106.463 452.637 103.134 447.075 103.134H341.118L357.229 68.5958C372.601 73.4457 389.109 67.2258 395.644 53.2654C402.152 39.305 396.302 22.6731 382.712 14.0009L386.164 6.60289C387.246 4.27388 386.246 1.52016 383.917 0.43785C381.588 -0.644458 378.834 0.355649 377.752 2.68467L374.3 10.0827C358.914 5.23288 342.42 11.4527 335.898 25.4131C329.377 39.3735 335.241 56.0054 348.831 64.6776L330.87 103.12H64.8967C59.3208 103.12 54.2929 106.449 52.1009 111.573C49.9088 116.697 50.9911 122.643 54.8409 126.657L243.286 323.541V487.641H190.938C184.211 487.641 178.758 493.093 178.758 499.82C178.758 506.547 184.197 512.013 190.938 512.013H321.047C327.774 512.013 333.227 506.561 333.227 499.82C333.227 493.107 327.788 487.641 321.047 487.641H268.686V323.555L457.13 126.671ZM317.883 130.972L299.867 169.62H154.852L255.999 275.289L357.147 169.62H310.115L328.13 130.972H414.482L255.999 296.552L97.4893 130.972H317.883Z" fill="#00FAC2"/>
</g>
<defs>
<clipPath id="clip0">
<rect width="512" height="512" fill="white"/>
</clipPath>
</defs>
</svg>
