<svg width="512" height="512" viewBox="0 0 512 512" fill="none" xmlns="http://www.w3.org/2000/svg">
<path d="M497 482H471V440H486C494.284 440 501 433.284 501 425C501 416.716 494.284 410 486 410H461V390H476C480.619 390 484.98 387.872 487.823 384.231C490.665 380.59 491.672 375.843 490.552 371.362L470.552 291.362C468.883 284.685 462.883 280 456 280H256C249.117 280 243.117 284.685 241.448 291.362L221.448 371.362C220.328 375.843 221.335 380.591 224.177 384.231C227.02 387.872 231.381 390 236 390H251V410H226C217.716 410 211 416.716 211 425C211 433.284 217.716 440 226 440H241V482H166V300H171C201.327 300 226 275.327 226 245V210H235C276.355 210 310 176.355 310 135C310 117.105 303.591 99.778 291.955 86.209C283.587 76.452 272.893 69.055 261.001 64.653C260.974 59.521 260.321 54.375 259.042 49.254C252.635 23.614 231.716 4.564 205.746 0.722C187.818 -1.932 169.92 3.019 156.045 13.919C144.745 4.943 130.796 0 116 0C80.159 0 51 29.159 51 65C51 65.556 51.031 66.111 51.092 66.663L52.454 78.873C21.368 90.194 0 119.856 0 154C0 198.112 35.888 234 80 234C101.151 234 121.104 225.736 136 211.094V330H131C117.215 330 106 318.785 106 305V275C106 266.716 99.284 260 91 260C82.716 260 76 266.716 76 275V305C76 335.327 100.673 360 131 360H136V482H15C6.716 482 0 488.716 0 497C0 505.284 6.716 512 15 512H497C505.284 512 512 505.284 512 497C512 488.716 505.284 482 497 482ZM196 245C196 258.785 184.785 270 171 270H166V210H196V245ZM118.796 185.53C109.242 197.268 95.101 204 80 204C52.43 204 30 181.57 30 154C30 129.639 47.394 108.931 71.358 104.761C79.169 103.402 84.573 96.199 83.694 88.321L81.008 64.239C81.415 45.29 96.956 30 116 30C127.039 30 137.233 35.188 143.969 44.233C146.8 48.034 151.261 50.274 156 50.274C160.739 50.274 165.2 48.034 168.031 44.233C175.913 33.649 188.371 28.48 201.355 30.398C215.051 32.424 226.537 42.924 229.936 56.526C231.272 61.872 231.343 67.234 230.149 72.465C229.227 76.501 230.015 80.738 232.325 84.174C234.635 87.61 238.262 89.938 242.347 90.607C264.165 94.183 280 112.852 280 135C280 159.813 259.813 180 235 180H130.429C125.917 180 121.645 182.031 118.796 185.53ZM267.711 310H444.288L456.788 360H255.211L267.711 310ZM281 390H431V410H281V390ZM271 440H441V482H271V440Z" fill="#00FAC2"/>
<path d="M337 110H353.766C355.39 116.845 358.089 123.275 361.691 129.096L349.825 140.962C343.967 146.82 343.967 156.317 349.825 162.175C352.754 165.104 356.593 166.569 360.431 166.569C364.269 166.569 368.109 165.105 371.037 162.175L382.903 150.309C388.724 153.911 395.155 156.61 401.999 158.234V175C401.999 183.284 408.715 190 416.999 190C425.283 190 431.999 183.284 431.999 175V158.234C438.844 156.61 445.274 153.911 451.095 150.309L462.961 162.175C465.89 165.104 469.729 166.569 473.567 166.569C477.405 166.569 481.245 165.105 484.173 162.175C490.031 156.317 490.031 146.82 484.173 140.962L472.307 129.096C475.909 123.275 478.608 116.844 480.232 110H497C505.284 110 512 103.284 512 95C512 86.716 505.284 80 497 80H480.234C478.61 73.155 475.911 66.725 472.309 60.904L484.175 49.038C490.033 43.18 490.033 33.683 484.175 27.825C478.318 21.967 468.82 21.967 462.962 27.825L451.096 39.691C445.275 36.089 438.844 33.39 432 31.766V15C432 6.716 425.284 0 417 0C408.716 0 402 6.716 402 15V31.766C395.155 33.39 388.725 36.089 382.904 39.691L371.038 27.825C365.181 21.967 355.683 21.967 349.825 27.825C343.967 33.683 343.967 43.18 349.825 49.038L361.691 60.904C358.089 66.725 355.39 73.156 353.766 80H337C328.716 80 322 86.716 322 95C322 103.284 328.716 110 337 110V110ZM417 60C436.299 60 452 75.701 452 95C452 114.299 436.299 130 417 130C397.701 130 382 114.299 382 95C382 75.701 397.701 60 417 60Z" fill="#00FAC2"/>
</svg>
