<svg width="512" height="512" viewBox="0 0 512 512" fill="none" xmlns="http://www.w3.org/2000/svg">
<g clip-path="url(#clip0)">
<path d="M509.511 421.666C505.536 407.771 496.888 398.096 485.783 395.121L464.892 389.523C466.262 386.818 467.426 383.876 468.334 380.7C471.854 368.394 471.634 353.562 467.715 338.937C459.007 306.439 435.213 285.528 413.551 291.334L407.521 292.95C421.43 242.445 413.678 196.984 403.973 166.481C392.279 129.726 375.627 106.586 374.924 105.619C372.568 102.378 368.502 100.857 364.602 101.752C360.697 102.648 357.703 105.787 356.995 109.73C353.633 128.432 344.584 141.819 335.986 150.733C343.046 91.3215 323.757 54.8737 304.934 34.0988C281.544 8.28197 254.097 0.658016 252.941 0.346018C249.072 -0.695976 244.95 0.671016 242.473 3.824C239.996 6.97698 239.643 11.304 241.574 14.8169C263.944 55.5247 254.054 68.9366 237.669 91.1565C230.915 100.314 223.336 110.593 217.443 123.915C209.532 106.691 196.714 92.4915 178.412 80.1996C174.981 77.8956 170.485 77.9386 167.099 80.3106C163.713 82.6825 162.136 86.8925 163.129 90.9045C173.005 130.785 153.409 153.897 132.663 178.366C108.891 206.405 82.2845 237.806 106.375 293.459L98.4494 291.335C76.7855 285.528 52.9917 306.44 44.2837 338.939C39.2058 357.89 40.5288 376.4 47.1127 389.523L26.2158 395.122C15.1119 398.097 6.46396 407.772 2.48898 421.667C-1.032 433.973 -0.812002 448.803 3.10698 463.43C7.02595 478.055 14.2519 491.01 23.4539 499.907C31.6088 507.793 40.9578 511.987 49.9727 511.987C52.4427 511.987 54.8867 511.672 57.2747 511.032C57.2767 511.031 57.2787 511.031 57.2817 511.03L256.001 457.783L454.727 511.032C457.159 511.684 459.616 511.999 462.077 511.999C481.542 511.998 501.163 492.28 508.893 463.43C512.811 448.803 513.031 433.971 509.511 421.666V421.666ZM418.727 310.653C427.861 308.208 442.472 322.002 448.397 344.114C448.863 345.852 449.253 347.597 449.585 349.339L431.124 354.286C425.79 355.715 422.624 361.199 424.054 366.534C425.251 371.002 429.291 373.948 433.706 373.948C434.562 373.948 435.434 373.837 436.3 373.605L450.243 369.869C449.965 371.728 449.588 373.514 449.105 375.201C447.11 382.177 443.584 386.815 439.431 387.928L81.1135 483.939C84.3935 472.145 84.3945 457.703 80.3805 442.724C76.5205 428.317 69.4476 415.539 60.4406 406.657L418.727 310.653ZM147.919 191.3C165.771 170.244 185.555 146.906 185.814 112.263C200.886 128.35 207.336 147.85 207.336 175C207.336 180.523 211.814 185 217.336 185C222.858 185 227.336 180.522 227.336 175C227.336 138.863 240.772 120.645 253.765 103.026C268.01 83.7075 281.61 65.2626 270.473 30.7748C276.971 35.0428 284.094 40.7488 290.748 48.2357C316.699 77.4356 323.875 119.015 312.076 171.819C311.239 175.567 312.622 179.463 315.635 181.844C318.647 184.226 322.757 184.672 326.211 182.991C327.616 182.307 355.279 168.496 369.739 135.968C374.642 145.418 380.371 158.111 385.126 173.213C398.745 216.473 398.599 258.785 384.718 299.059L323.161 315.553C323.724 311.918 324.186 308.299 324.516 304.72C325.023 299.22 320.976 294.351 315.477 293.844C309.976 293.325 305.108 297.383 304.6 302.883C304.043 308.923 303.083 315.1 301.785 321.282L256.001 333.55L197.987 318.005C193.223 297.194 195.611 280.314 205.889 264.55C209.289 273.626 214.989 283.75 224.488 290.805C227.994 293.409 232.782 293.438 236.318 290.876C238.173 289.531 275.256 262.097 282.074 215.211C283.623 217.422 285.171 219.778 286.688 222.28C289.553 227.002 295.704 228.509 300.425 225.642C305.147 222.777 306.652 216.627 303.787 211.906C296.987 200.699 288.522 190.185 279.308 181.501C276.245 178.615 271.703 177.956 267.947 179.85C264.19 181.745 262.021 185.789 262.52 189.967C265.096 211.493 259.628 232.171 246.27 251.428C240.828 259.272 235.092 265.311 230.887 269.266C222.326 258.229 220.937 242.205 220.923 242.039C220.634 238.139 218.099 234.766 214.433 233.404C210.769 232.042 206.644 232.943 203.879 235.707C181.403 258.182 172.566 282.81 176.632 312.282L132.192 300.374C101.363 246.22 121.96 221.919 147.919 191.3V191.3ZM63.3106 345.262L82.3755 350.37C83.2425 350.602 84.1125 350.713 84.9695 350.713C89.3845 350.713 93.4254 347.766 94.6224 343.299C96.0524 337.964 92.8865 332.481 87.5515 331.051L70.9486 326.602C77.8475 315.167 86.8985 308.947 93.2734 310.652L217.364 343.902L67.2106 384.137C61.6806 377.298 58.9856 362.477 63.3106 345.262V345.262ZM22.4259 458.253C19.4759 447.239 19.2169 435.909 21.7179 427.167C23.7129 420.191 27.2388 415.553 31.3918 414.44C32.0878 414.253 32.8188 414.162 33.5768 414.162C37.3418 414.162 41.7927 416.428 46.1337 420.625C52.6707 426.946 58.1127 436.887 61.0636 447.9C66.9896 470.013 61.2176 489.27 52.0977 491.713C47.9527 492.826 42.5737 490.571 37.3578 485.528C30.8198 479.207 25.3768 469.265 22.4259 458.253V458.253ZM335.347 436.521C335.502 436.57 335.652 436.628 335.81 436.671L366.64 444.932C367.506 445.164 368.377 445.275 369.234 445.275C373.649 445.275 377.69 442.328 378.887 437.861C380.15 433.148 377.822 428.323 373.583 426.277L444.606 407.246C445.964 406.882 447.285 406.415 448.566 405.855L451.557 406.657C442.551 415.54 435.477 428.317 431.618 442.724C427.605 457.703 427.606 472.145 430.885 483.939L294.635 447.431L335.347 436.521ZM489.573 458.252C483.647 480.367 469.008 494.155 459.902 491.713C450.782 489.269 445.01 470.013 450.936 447.899C453.887 436.886 459.329 426.945 465.866 420.625C470.208 416.427 474.657 414.162 478.423 414.162C479.181 414.162 479.911 414.254 480.608 414.44C484.76 415.553 488.287 420.191 490.282 427.167C492.782 435.909 492.525 447.239 489.573 458.252Z" fill="#00FAC2"/>
<path d="M301.965 258.88C301.965 264.403 306.446 268.88 311.969 268.88C317.492 268.88 321.969 264.403 321.969 258.88C321.969 253.357 317.491 248.88 311.969 248.88H311.961C306.439 248.88 301.965 253.357 301.965 258.88V258.88Z" fill="#00FAC2"/>
<path d="M125.22 438.997C126.076 438.997 126.948 438.886 127.814 438.654L149.841 432.752C155.176 431.323 158.342 425.839 156.912 420.505C155.482 415.171 149.998 412.004 144.665 413.434L122.638 419.336C117.303 420.765 114.137 426.249 115.567 431.583C116.764 436.051 120.804 438.997 125.22 438.997V438.997Z" fill="#00FAC2"/>
<path d="M277.206 393.948C278.062 393.948 278.934 393.837 279.8 393.605L301.826 387.703C307.161 386.274 310.327 380.79 308.897 375.455C307.467 370.121 301.984 366.953 296.65 368.384L274.624 374.286C269.289 375.715 266.123 381.199 267.553 386.534C268.75 391.002 272.79 393.948 277.206 393.948V393.948Z" fill="#00FAC2"/>
</g>
<defs>
<clipPath id="clip0">
<rect width="512" height="512" fill="white"/>
</clipPath>
</defs>
</svg>
