<svg width="512" height="512" viewBox="0 0 512 512" fill="none" xmlns="http://www.w3.org/2000/svg">
<path d="M140.143 370.754C147.619 370.748 154.994 369.019 161.694 365.702C168.394 362.385 174.24 357.569 178.778 351.628C183.313 357.569 189.158 362.384 195.858 365.699C202.557 369.013 209.931 370.737 217.406 370.737C224.881 370.737 232.255 369.013 238.954 365.699C245.654 362.384 251.499 357.569 256.035 351.628C260.57 357.569 266.415 362.384 273.115 365.699C279.814 369.013 287.188 370.737 294.663 370.737C302.138 370.737 309.512 369.013 316.211 365.699C322.911 362.384 328.756 357.569 333.291 351.628C338.173 358.002 344.554 363.07 351.868 366.383C359.181 369.696 367.2 371.15 375.211 370.615C383.221 370.081 390.976 367.576 397.785 363.321C404.593 359.067 410.245 353.196 414.237 346.23C418.23 339.265 420.438 331.42 420.667 323.395C420.896 315.37 419.139 307.412 415.55 300.23C411.962 293.048 406.654 286.864 400.099 282.229C393.544 277.593 385.945 274.649 377.977 273.659C381.006 266.73 382.379 259.19 381.986 251.638C381.592 244.085 379.444 236.729 375.712 230.152C371.979 223.575 366.765 217.958 360.483 213.747C354.201 209.537 347.024 206.849 339.522 205.896C342.468 198.98 343.772 191.476 343.333 183.971C342.894 176.467 340.724 169.166 336.993 162.64C333.262 156.114 328.071 150.541 321.826 146.356C315.581 142.172 308.452 139.49 300.998 138.52C304.104 131.11 305.33 123.047 304.567 115.049C303.805 107.05 301.077 99.3642 296.627 92.6743C292.178 85.9844 286.143 80.498 279.061 76.7031C271.979 72.9082 264.069 70.9225 256.035 70.9225C248 70.9225 240.09 72.9082 233.008 76.7031C225.926 80.498 219.891 85.9844 215.442 92.6743C210.992 99.3642 208.264 107.05 207.502 115.049C206.739 123.047 207.965 131.11 211.071 138.52C203.617 139.49 196.488 142.172 190.243 146.356C183.998 150.541 178.807 156.114 175.076 162.64C171.345 169.166 169.175 176.467 168.736 183.971C168.297 191.476 169.601 198.98 172.547 205.896C165.045 206.849 157.868 209.537 151.586 213.747C145.304 217.958 140.09 223.575 136.357 230.152C132.625 236.729 130.477 244.085 130.084 251.638C129.69 259.19 131.063 266.73 134.092 273.659C121.785 275.197 110.528 281.368 102.613 290.917C94.6985 300.465 90.7218 312.672 91.4933 325.05C92.2647 337.428 97.7263 349.047 106.765 357.538C115.805 366.03 127.741 370.756 140.143 370.754V370.754ZM256.035 225.705C261.673 225.703 267.186 227.375 271.875 230.507C276.565 233.639 280.22 238.091 282.378 243.3C284.537 248.51 285.103 254.242 284.003 259.773C282.904 265.304 280.189 270.384 276.202 274.372C272.215 278.36 267.135 281.076 261.604 282.176C256.074 283.277 250.341 282.713 245.131 280.555C239.921 278.397 235.468 274.743 232.335 270.055C229.203 265.366 227.53 259.854 227.53 254.215C227.536 246.656 230.541 239.409 235.885 234.064C241.229 228.719 248.476 225.712 256.035 225.705V225.705ZM217.406 350.505C211.767 350.506 206.254 348.835 201.565 345.703C196.876 342.571 193.221 338.119 191.062 332.91C188.903 327.7 188.338 321.968 189.437 316.437C190.537 310.906 193.252 305.826 197.239 301.838C201.226 297.85 206.306 295.134 211.836 294.034C217.367 292.933 223.099 293.497 228.309 295.655C233.519 297.813 237.972 301.467 241.105 306.155C244.238 310.844 245.91 316.356 245.91 321.995C245.903 329.553 242.897 336.8 237.553 342.144C232.21 347.489 224.964 350.496 217.406 350.505ZM294.663 350.505C289.023 350.511 283.508 348.844 278.816 345.715C274.124 342.585 270.465 338.135 268.303 332.926C266.14 327.717 265.572 321.983 266.668 316.451C267.765 310.919 270.478 305.836 274.464 301.846C278.45 297.856 283.53 295.138 289.061 294.035C294.593 292.933 300.327 293.496 305.538 295.653C310.749 297.81 315.203 301.464 318.337 306.153C321.471 310.842 323.144 316.355 323.144 321.995C323.136 329.549 320.134 336.792 314.795 342.136C309.457 347.48 302.217 350.49 294.663 350.505V350.505ZM400.43 321.995C400.431 327.635 398.76 333.147 395.628 337.837C392.495 342.526 388.043 346.181 382.833 348.34C377.623 350.498 371.89 351.063 366.359 349.964C360.828 348.864 355.748 346.148 351.76 342.161C347.773 338.173 345.057 333.093 343.958 327.562C342.858 322.031 343.423 316.298 345.581 311.088C347.74 305.878 351.395 301.426 356.084 298.293C360.774 295.161 366.287 293.49 371.926 293.491C379.483 293.5 386.728 296.506 392.071 301.85C397.415 307.193 400.421 314.438 400.43 321.995V321.995ZM361.801 254.215C361.801 259.853 360.129 265.365 356.997 270.054C353.864 274.742 349.411 278.397 344.202 280.554C338.992 282.712 333.26 283.277 327.729 282.177C322.199 281.077 317.119 278.361 313.132 274.374C309.145 270.387 306.429 265.307 305.329 259.777C304.229 254.246 304.794 248.514 306.952 243.304C309.11 238.095 312.764 233.642 317.452 230.509C322.141 227.377 327.653 225.705 333.291 225.705C340.85 225.714 348.096 228.72 353.441 234.065C358.786 239.41 361.792 246.656 361.801 254.215V254.215ZM323.144 186.816C323.143 192.453 321.47 197.964 318.337 202.65C315.205 207.337 310.753 210.99 305.544 213.146C300.335 215.303 294.604 215.866 289.075 214.766C283.547 213.665 278.468 210.95 274.482 206.963C270.496 202.977 267.782 197.898 266.683 192.369C265.584 186.84 266.148 181.109 268.306 175.901C270.464 170.692 274.117 166.241 278.804 163.109C283.492 159.977 289.002 158.306 294.64 158.306C302.198 158.315 309.444 161.322 314.787 166.667C320.131 172.011 323.136 179.258 323.144 186.816V186.816ZM256.035 91.1731C261.672 91.1731 267.183 92.8448 271.871 95.9769C276.558 99.109 280.212 103.561 282.369 108.769C284.526 113.978 285.091 119.709 283.991 125.238C282.891 130.767 280.176 135.846 276.19 139.833C272.204 143.819 267.125 146.534 261.595 147.634C256.066 148.734 250.335 148.169 245.126 146.012C239.918 143.854 235.466 140.201 232.334 135.513C229.202 130.826 227.53 125.315 227.53 119.677C227.538 112.12 230.544 104.874 235.887 99.5302C241.231 94.1863 248.477 91.1807 256.035 91.1731V91.1731ZM217.406 158.283C223.045 158.277 228.559 159.944 233.251 163.072C237.943 166.2 241.601 170.649 243.764 175.857C245.927 181.065 246.497 186.797 245.402 192.328C244.307 197.86 241.597 202.943 237.613 206.934C233.629 210.925 228.551 213.645 223.022 214.75C217.492 215.855 211.759 215.295 206.547 213.142C201.336 210.988 196.88 207.338 193.743 202.652C190.606 197.966 188.93 192.455 188.925 186.816C188.933 179.262 191.935 172.019 197.274 166.675C202.612 161.331 209.852 158.321 217.406 158.306V158.283ZM178.778 225.681C184.416 225.681 189.928 227.354 194.617 230.486C199.305 233.619 202.959 238.072 205.117 243.281C207.275 248.491 207.84 254.223 206.74 259.753C205.64 265.284 202.924 270.364 198.937 274.351C194.95 278.338 189.87 281.054 184.34 282.154C178.809 283.254 173.077 282.689 167.867 280.531C162.658 278.373 158.205 274.719 155.072 270.031C151.94 265.342 150.268 259.83 150.268 254.191C150.281 246.637 153.29 239.395 158.635 234.055C163.979 228.715 171.223 225.712 178.778 225.705V225.681ZM140.143 293.491C145.782 293.49 151.295 295.161 155.985 298.293C160.674 301.426 164.329 305.878 166.488 311.088C168.646 316.298 169.211 322.031 168.111 327.562C167.012 333.093 164.296 338.173 160.309 342.161C156.321 346.148 151.241 348.864 145.71 349.964C140.179 351.063 134.446 350.498 129.236 348.34C124.026 346.181 119.574 342.526 116.441 337.837C113.309 333.147 111.638 327.635 111.639 321.995C111.648 314.438 114.654 307.193 119.998 301.85C125.341 296.506 132.586 293.5 140.143 293.491V293.491Z" fill="#00FAC2"/>
<path d="M88.5615 412.015H423.531C434.25 412.057 444.789 409.266 454.082 403.925C463.376 398.584 471.093 390.882 476.452 381.6C481.812 372.317 484.623 361.783 484.603 351.064C484.582 340.345 481.729 329.822 476.333 320.561L308.837 30.4853C303.486 21.2165 295.789 13.5198 286.52 8.16848C277.251 2.81721 266.737 0 256.035 0C245.332 0 234.818 2.81721 225.549 8.16848C216.28 13.5198 208.583 21.2165 203.232 30.4853L35.759 320.561C30.4084 329.829 27.5917 340.343 27.592 351.045C27.5924 361.748 30.4098 372.261 35.761 381.53C41.1122 390.798 48.8088 398.495 58.0772 403.846C67.3456 409.197 77.8592 412.014 88.5615 412.015V412.015ZM53.2711 330.685L220.744 40.6095C224.32 34.4202 229.461 29.2808 235.651 25.7077C241.842 22.1345 248.864 20.2535 256.011 20.2535C263.159 20.2535 270.181 22.1345 276.372 25.7077C282.562 29.2808 287.703 34.4202 291.279 40.6095L458.775 330.685C462.349 336.877 464.23 343.901 464.229 351.051C464.228 358.201 462.344 365.225 458.767 371.416C455.19 377.607 450.046 382.747 443.853 386.319C437.659 389.891 430.634 391.77 423.485 391.766H88.5152C81.355 391.797 74.3139 389.934 68.1048 386.368C61.8957 382.803 56.7391 377.659 53.1571 371.459C49.575 365.259 47.6948 358.223 47.7067 351.063C47.7186 343.903 49.6222 336.873 53.2248 330.685H53.2711Z" fill="#00FAC2"/>
<path d="M505.422 433.467C503.338 431.406 500.859 429.786 498.134 428.706C495.409 427.625 492.495 427.106 489.564 427.178L55.2844 435.902L41.3997 436.18L21.5792 436.573C15.8255 436.721 10.3551 439.102 6.32701 443.213C2.29895 447.325 0.0296903 452.842 0 458.598V473.605C0.028276 479.361 2.29726 484.879 6.32577 488.989C10.3543 493.1 15.8255 495.48 21.5792 495.624L41.3997 496.023L101.278 497.227H101.457L489.535 505.025H489.987C495.827 505.021 501.426 502.697 505.553 498.566C509.681 494.435 512 488.835 512 482.995V449.203C512.014 446.273 511.439 443.37 510.309 440.667C509.179 437.964 507.517 435.515 505.422 433.467V433.467ZM91.3905 476.775L51.7612 475.977V456.22L91.3905 455.428V476.775ZM20.2833 473.605V458.598C20.2846 458.134 20.4667 457.69 20.7907 457.358C21.1148 457.026 21.5554 456.834 22.0189 456.822L31.5068 456.631V475.572L22.0189 475.381C21.5554 475.369 21.1148 475.177 20.7907 474.845C20.4667 474.514 20.2846 474.069 20.2833 473.605ZM491.786 483C491.789 483.238 491.743 483.473 491.652 483.692C491.56 483.911 491.425 484.109 491.254 484.273C490.872 484.539 490.435 484.713 489.975 484.782L111.616 477.18V455.017L489.975 447.421H490.016C490.249 447.422 490.48 447.468 490.695 447.558C490.91 447.648 491.105 447.78 491.27 447.945C491.434 448.111 491.564 448.307 491.653 448.523C491.741 448.738 491.787 448.969 491.786 449.203V483Z" fill="#00FAC2"/>
</svg>
