<svg width="512" height="512" viewBox="0 0 512 512" fill="none" xmlns="http://www.w3.org/2000/svg">
<g clip-path="url(#clip0)">
<path d="M481 195C481 148.322 457.185 107.105 421.069 82.852L421.099 82.807C388.524 60.965 348.603 55.218 314.763 63.656C325.166 85.26 331 109.461 331 135C331 196.035 297.816 270.894 249.506 311.92C272.177 345.815 299.71 367 328.542 373.131L303.936 412.5H329.617C323.016 429.289 327.126 445.478 339.781 458.132C342.884 461.236 346.057 463.492 348.857 465.483C355.948 470.524 373.071 489.167 373.071 512.001H403.071C403.071 476.617 379.326 450.337 366.241 441.033C364.136 439.537 362.319 438.245 360.994 436.92C356.654 432.58 356.337 429.507 356.545 427.316C357.001 422.519 360.621 417.145 364.848 412.501H388.064L363.459 373.132C412.589 362.688 449.274 310.985 467.126 263.889L467.104 263.88C475.98 240.426 481 216.283 481 195V195Z" fill="#00FAC2"/>
<path d="M301 135C301 60.561 240.439 0 166 0C91.561 0 31 60.561 31 135C31 202.504 80.949 298.761 148.54 313.135L123.937 352.5H138.987C128.581 367.819 123.761 381.787 124.682 394.118C125.589 406.264 131.864 416.451 142.826 423.577C151.882 429.463 149.491 441.307 140.707 465.633C136.744 476.607 133.001 486.972 133.001 496.408H163.001C163.001 486.519 177.114 461.045 178.483 438.781C179.841 416.68 168.733 404.635 159.175 398.423C155.402 395.97 154.746 393.834 154.6 391.892C153.845 381.925 165.626 365.206 177.359 352.499H208.064L183.46 313.134C251.165 298.736 301 202.329 301 135V135Z" fill="#00FAC2"/>
</g>
<defs>
<clipPath id="clip0">
<rect width="512" height="512" fill="white"/>
</clipPath>
</defs>
</svg>
