<svg width="512" height="512" viewBox="0 0 512 512" fill="none" xmlns="http://www.w3.org/2000/svg">
<path d="M66.6647 499.154C53.1846 499.154 42.1554 489.637 42.1554 477.741C42.1554 434.916 56.861 412.551 70.096 393.042C81.3703 375.912 91.1741 361.161 91.1741 329.994C91.1741 298.826 81.3703 284.075 70.096 266.945C57.1061 247.198 42.1554 225.072 42.1554 182.246C42.1554 139.421 56.861 117.295 70.096 97.5476C81.3703 80.4175 91.1741 65.6665 91.1741 34.4993C91.1741 22.6033 102.203 13.0866 115.683 13.0866C129.164 13.0866 140.193 22.6033 140.193 34.4993C140.193 77.3245 125.487 99.4509 112.252 119.198C100.978 136.09 91.1741 150.841 91.1741 182.009C91.1741 213.176 100.978 227.927 112.252 245.057C125.242 264.804 140.193 286.93 140.193 329.756C140.193 372.581 125.487 394.945 112.252 414.455C100.978 431.585 91.1741 446.336 91.1741 477.503C91.1741 489.637 80.1449 499.154 66.6647 499.154Z" fill="#00FAC2"/>
<path d="M237.739 499.153C224.259 499.153 213.23 489.637 213.23 477.741C213.23 434.915 227.936 412.551 241.171 393.042C252.445 375.912 262.249 361.161 262.249 329.993C262.249 298.826 252.445 284.075 241.171 266.945C227.936 247.198 213.23 224.834 213.23 182.008C213.23 139.183 227.936 117.057 241.171 97.3094C252.445 80.1793 262.249 65.4284 262.249 34.2611C262.249 22.3652 273.278 12.8485 286.758 12.8485C300.238 12.8485 311.267 22.3652 311.267 34.2611C311.267 77.0864 296.562 99.2128 283.327 118.96C272.053 136.09 262.249 150.841 262.249 182.008C262.249 213.176 272.053 227.927 283.327 245.057C296.317 264.804 311.267 286.93 311.267 329.756C311.267 372.581 296.562 394.945 283.327 414.454C272.053 431.584 262.249 446.335 262.249 477.503C262.249 489.637 251.22 499.153 237.739 499.153Z" fill="#00FAC2"/>
<path d="M396.314 499.154C382.834 499.154 371.805 489.637 371.805 477.741C371.805 434.916 386.51 412.551 399.745 393.042C411.02 375.912 420.823 361.161 420.823 329.994C420.823 298.826 411.02 284.075 399.745 266.945C386.755 247.198 371.805 225.072 371.805 182.246C371.805 139.421 386.51 117.295 399.745 97.5476C411.02 80.4175 420.823 65.6665 420.823 34.4993C420.823 22.6033 431.853 13.0866 445.333 13.0866C458.813 13.0866 469.842 22.6033 469.842 34.4993C469.842 77.3245 455.136 99.4509 441.901 119.198C430.627 136.328 420.823 151.079 420.823 182.246C420.823 213.414 430.627 228.165 441.901 245.295C454.891 265.042 469.842 287.168 469.842 329.994C469.842 372.819 455.136 395.183 441.901 414.693C430.627 431.823 420.823 446.574 420.823 477.741C420.823 489.637 409.794 499.154 396.314 499.154Z" fill="#00FAC2"/>
</svg>
