<svg width="512" height="511" viewBox="0 0 512 511" fill="none" xmlns="http://www.w3.org/2000/svg">
<path d="M346.751 164.926C323.725 141.944 291.217 127.074 256 127.074C220.783 127.074 188.275 141.269 165.249 164.926C142.222 187.907 127.323 220.352 127.323 255.5C127.323 290.648 142.222 323.093 165.249 346.074C188.275 369.056 220.783 383.926 256 383.926C291.217 383.926 323.725 369.731 346.751 346.074C369.778 323.093 384.677 290.648 384.677 255.5C384.677 220.352 370.455 187.907 346.751 164.926ZM322.37 321.741C305.439 338.639 281.735 348.778 256 348.778C230.265 348.778 206.561 338.639 189.63 321.741C172.698 304.843 162.54 281.185 162.54 255.5C162.54 229.815 172.698 206.157 189.63 189.259C206.561 172.361 230.265 162.222 256 162.222C281.735 162.222 305.439 172.361 322.37 189.259C339.302 206.157 349.46 229.815 349.46 255.5C349.46 281.185 339.302 304.843 322.37 321.741Z" fill="#00FAC2"/>
<path d="M494.392 237.926H442.243C432.762 237.926 424.635 246.037 424.635 255.5C424.635 264.963 432.762 273.074 442.243 273.074H494.392C503.873 273.074 512 264.963 512 255.5C512 246.037 503.873 237.926 494.392 237.926Z" fill="#00FAC2"/>
<path d="M256 423.806C246.519 423.806 238.392 431.917 238.392 441.38V493.426C238.392 502.889 246.519 511 256 511C265.481 511 273.608 502.889 273.608 493.426V441.38C273.608 431.917 265.481 423.806 256 423.806Z" fill="#00FAC2"/>
<path d="M436.825 411.639L399.577 374.463C393.481 367.704 381.968 367.704 375.196 374.463C368.423 381.222 368.423 392.037 375.196 398.796L412.444 435.972C419.217 442.732 430.053 442.732 436.825 435.972C443.598 429.213 443.598 418.398 436.825 411.639Z" fill="#00FAC2"/>
<path d="M256 0C246.519 0 238.392 8.11111 238.392 17.5741V69.6204C238.392 79.0833 246.519 87.1944 256 87.1944C265.481 87.1944 273.608 79.0833 273.608 69.6204V17.5741C273.608 8.11111 265.481 0 256 0Z" fill="#00FAC2"/>
<path d="M437.503 75.0278C430.73 68.2685 419.894 68.2685 413.122 75.0278L375.873 112.204C369.101 118.963 369.101 129.778 375.873 136.537C381.968 143.296 393.482 143.296 400.254 136.537L437.503 99.3611C444.275 92.6019 444.275 81.787 437.503 75.0278Z" fill="#00FAC2"/>
<path d="M69.7566 237.926H17.6085C8.12698 237.926 0 246.037 0 255.5C0 264.963 7.44974 273.074 17.6085 273.074H69.7566C79.2381 273.074 87.3651 264.963 87.3651 255.5C87.3651 246.037 79.2381 237.926 69.7566 237.926Z" fill="#00FAC2"/>
<path d="M136.127 374.463C130.032 367.704 118.519 367.704 111.746 374.463L74.4973 411.639C67.7248 418.398 67.7248 429.213 74.4973 435.972C81.2698 442.732 92.1058 442.732 98.8783 435.972L136.127 398.796C142.899 392.037 142.899 381.222 136.127 374.463Z" fill="#00FAC2"/>
<path d="M136.127 112.204L98.8783 75.0278C92.1058 68.2685 81.2698 68.2685 74.4973 75.0278C67.7248 81.787 67.7248 92.6019 74.4973 99.3611L111.746 136.537C118.519 143.296 129.354 143.296 136.127 136.537C142.899 129.778 142.899 118.963 136.127 112.204Z" fill="#00FAC2"/>
</svg>
