<svg width="512" height="442" viewBox="0 0 512 442" fill="none" xmlns="http://www.w3.org/2000/svg">
<path d="M130.14 117.459C149.32 117.459 164.855 101.925 164.855 82.5859C164.855 63.4057 149.32 47.7128 130.14 47.7128C110.96 47.7128 95.267 63.2472 95.267 82.5859C95.267 101.766 110.801 117.459 130.14 117.459Z" fill="#00FAC2"/>
<path d="M222.713 236.66L183.877 147.733C179.914 138.698 171.671 132.833 162.319 131.248C160.892 130.931 99.0717 130.931 97.6451 131.248C88.2927 132.833 80.05 138.857 76.0872 147.733L37.2512 236.66C34.8735 242.049 35.5076 248.073 38.6779 252.987C41.8482 257.901 47.2376 260.754 53.1026 260.754C59.9187 260.754 66.2593 256.632 68.954 250.45L83.5373 217.004V392.32C83.5373 402.782 91.9386 411.184 102.4 411.184C112.862 411.184 121.264 402.782 121.264 392.32V274.069H138.7V392.32C138.7 402.782 147.101 411.184 157.563 411.184C168.025 411.184 176.426 402.782 176.426 392.32V217.004L191.01 250.609C193.705 256.949 200.045 260.912 206.861 260.912C212.726 260.912 218.116 257.901 221.286 253.145C224.615 248.231 225.09 242.049 222.713 236.66Z" fill="#00FAC2"/>
<path d="M429.891 152.649C421.648 138.224 411.662 130.933 400.09 130.933H334.941C323.211 130.933 313.383 138.224 305.141 152.649L261.708 230.479C259.964 233.65 259.013 237.296 259.013 241.258C259.013 246.648 260.598 251.245 263.768 255.049C266.939 258.853 270.743 260.756 275.34 260.756C281.047 260.756 285.643 257.902 288.972 252.037L327.491 182.925L335.1 182.767L293.252 313.699C292.301 315.76 291.667 317.979 291.667 320.357C291.667 323.844 292.777 326.856 294.837 329.551C297.056 332.087 299.593 333.355 302.446 333.355H335.1V388.518C335.1 394.7 337.002 400.089 340.648 404.528C344.452 408.966 348.89 411.185 354.121 411.185H381.227C386.458 411.185 390.897 408.966 394.701 404.528C398.505 400.089 400.249 394.7 400.249 388.518V333.355H432.903C435.915 333.355 438.451 332.087 440.512 329.551C442.731 327.014 443.682 324.003 443.682 320.357C443.682 317.979 443.206 315.76 442.097 313.699L400.249 182.767L407.858 182.925L446.377 252.037C449.705 257.902 454.144 260.756 460.009 260.756C464.606 260.756 468.41 258.853 471.58 255.049C474.751 251.245 476.336 246.648 476.336 241.258C476.336 237.296 475.385 233.808 473.641 230.479L429.891 152.649Z" fill="#00FAC2"/>
<path d="M367.435 117.459C386.615 117.459 402.15 101.925 402.15 82.5859C402.15 63.4057 386.615 47.7128 367.435 47.7128C348.255 47.7128 332.562 63.2472 332.562 82.5859C332.562 101.766 348.096 117.459 367.435 117.459Z" fill="#00FAC2"/>
</svg>
