<svg width="512" height="512" viewBox="0 0 512 512" fill="none" xmlns="http://www.w3.org/2000/svg">
<path d="M133.05 451.393C135.683 443.669 138.997 433.929 142.407 423.872C152.74 393.403 181.286 372.93 213.443 372.93H287.004C328.359 372.93 362.003 406.574 362.003 447.929V454.602C292.991 466.396 203.09 465.989 133.05 451.393ZM45.7671 70.892C59.9168 56.8193 78.6874 49.0724 98.651 49.0724H98.685C118.731 49.0814 137.569 56.8993 151.731 71.086L180.007 99.4124V149.886C180.007 149.886 130.888 92.6036 130.617 92.3316C122.118 83.8317 110.818 79.1518 98.798 79.1518C86.7783 79.1518 75.4775 83.8327 66.9787 92.3316L56.5299 102.78L35.7853 81.4728L45.7671 70.892ZM109.104 161.902C106.792 157.829 102.712 155.07 98.0711 154.442C93.4321 153.814 88.7632 155.389 85.4523 158.7L55.6099 188.543C49.763 194.39 40.2502 194.391 34.4023 188.543C28.5424 182.682 28.5394 173.196 34.4023 167.334L88.1913 113.545C91.0242 110.712 94.7911 109.152 98.798 109.152C102.645 109.152 106.27 110.59 109.06 113.212L195.007 213.483V297.934C195.007 306.217 201.723 312.933 210.007 312.933H241.006V342.933H213.444C168.425 342.933 128.461 371.589 113.998 414.24C110.12 425.676 106.497 436.32 103.805 444.212C94.2221 441.47 84.6163 438.307 75.4015 434.714C75.3495 434.694 75.2985 434.674 75.2475 434.654C77.2025 428.889 77.0005 429.03 87.1743 399.738C115.096 319.343 146.743 228.223 109.104 161.902V161.902ZM256.005 492.928C319.206 492.928 390.327 485.405 449.54 461.868C489.198 446.12 506.214 429.92 507.518 428.623C513.424 422.813 513.503 413.316 507.693 407.411C501.912 401.535 492.483 401.433 486.555 407.162C486.54 407.176 486.492 407.22 486.398 407.306C484.98 408.586 474.454 417.722 452 428.164C451.866 289.458 452.299 297.148 451.625 289.094C465.362 295.68 482 307.808 482 327.931C482 336.215 488.715 342.931 496.999 342.931C505.283 342.931 511.999 336.215 511.999 327.931V222.933C511.999 189.85 485.083 162.934 452 162.934C425.342 162.934 402.699 180.416 394.906 204.513C380.536 197.115 364.249 192.934 347.002 192.934H216.905C216.905 192.934 212.206 187.452 210.006 184.885C210.006 163.568 210.006 93.2066 210.006 93.2066C210.006 89.2326 208.429 85.4217 205.622 82.6098L172.962 49.8914C153.136 30.0298 126.761 19.085 98.698 19.073C98.681 19.073 98.668 19.073 98.651 19.073C70.6066 19.073 44.2381 29.9948 24.4065 49.8274C24.3035 49.9304 24.2025 50.0344 24.1025 50.1404L4.0989 71.342C-1.41599 77.1879 -1.34299 86.3407 4.2629 92.0986L35.3153 123.995L13.1897 146.121C-4.39393 163.703 -4.39693 192.168 13.1897 209.754C30.7334 227.299 59.2788 227.299 76.8225 209.754L91.0582 195.52C107.611 249.452 81.8544 323.614 58.8338 389.893C49.84 415.787 48.424 420.284 47.826 422.044C32.3883 413.65 25.5405 407.245 25.4385 407.155C19.5266 401.432 10.0968 401.534 4.3159 407.411C-1.49299 413.317 -1.41399 422.814 4.49189 428.623C7.37484 431.486 11.6248 434.684 14.9677 437.006C77.1585 480.941 179.754 492.928 256.005 492.928V492.928ZM317.004 297.932V222.933H347.003C388.357 222.933 422.002 256.577 422.002 297.932V439.963C413.278 442.854 403.297 445.751 392.002 448.468V447.928C392.002 390.032 344.9 342.93 287.004 342.93H271.005V312.93H302.004C310.288 312.931 317.004 306.216 317.004 297.932V297.932ZM225.006 222.933H287.004V282.932H225.006V222.933ZM442.252 253.779C437.184 242.891 430.306 233.012 422.002 224.53V222.934C422.002 206.392 435.459 192.935 452.001 192.935C468.543 192.935 482.001 206.392 482.001 222.934V272.354C479.728 270.689 477.329 269.088 474.808 267.551C461.068 259.177 447.34 255.105 442.252 253.779V253.779Z" fill="#15252F"/>
</svg>
