<svg width="512" height="512" viewBox="0 0 512 512" fill="none" xmlns="http://www.w3.org/2000/svg">
<g clip-path="url(#clip0)">
<path d="M15 511.99C23.284 511.99 30 505.274 30 496.99V301.99H60V496.99C60 505.274 66.716 511.99 75 511.99C83.284 511.99 90 505.274 90 496.99V481.99H150V496.99C150 505.274 156.716 511.99 165 511.99C173.284 511.99 180 505.274 180 496.99V301.99H210V496.99C210 505.274 216.716 511.99 225 511.99C233.284 511.99 240 505.274 240 496.99V304.057C270.756 312.804 291.059 348.25 314.079 388.453C347.125 446.162 385.045 511.993 466.89 511.993C467.168 511.993 497 511.991 497 511.991C505.284 511.991 512 505.275 512 496.991V436.991C512 428.707 505.284 421.991 497 421.991H467C436.486 421.991 416.284 386.095 392.892 344.532C361.495 288.746 322.837 220.086 240 212.662V106.99C240 102.772 238.097 98.523 234.885 95.708L129.885 3.708C124.21 -1.262 115.698 -1.189 110.115 3.708L5.115 95.708C1.832 98.585 0 102.811 0 106.99V496.99C0 505.274 6.716 511.99 15 511.99ZM120 34.933L185.12 91.99H54.88L120 34.933ZM30 121.99H210V271.99H180V211.99C180 178.906 153.084 151.99 120 151.99C86.916 151.99 60 178.906 60 211.99V271.99H30V121.99ZM90 361.99H150V391.99H90V361.99ZM150 331.99H90V301.99H150V331.99ZM150 271.99H90V211.99C90 195.448 103.458 181.99 120 181.99C136.542 181.99 150 195.448 150 211.99V271.99ZM90 451.99V421.99H150V451.99H90ZM366.748 359.244C391.095 402.506 417.542 451.99 467 451.99H482V481.99C482 481.99 467.205 481.992 466.983 481.992C402.212 481.992 372.044 429.309 340.113 373.545C314.146 328.197 287.375 281.45 240 273.255V242.821C305.346 250.168 336.529 305.553 366.748 359.244Z" fill="#15252F"/>
</g>
<defs>
<clipPath id="clip0">
<rect width="512" height="512" fill="white"/>
</clipPath>
</defs>
</svg>
