<svg width="512" height="512" viewBox="0 0 512 512" fill="none" xmlns="http://www.w3.org/2000/svg">
<path d="M175.872 330.824C181.041 330.82 186.14 329.624 190.772 327.331C195.405 325.038 199.447 321.708 202.584 317.6C205.72 321.708 209.761 325.037 214.393 327.329C219.026 329.62 224.124 330.813 229.292 330.813C234.46 330.813 239.559 329.62 244.191 327.329C248.823 325.037 252.864 321.708 256 317.6C259.136 321.708 263.177 325.037 267.809 327.329C272.442 329.62 277.54 330.813 282.708 330.813C287.876 330.813 292.975 329.62 297.607 327.329C302.239 325.037 306.28 321.708 309.416 317.6C312.791 322.007 317.203 325.512 322.26 327.802C327.316 330.092 332.86 331.098 338.399 330.728C343.938 330.359 349.3 328.626 354.007 325.685C358.715 322.744 362.622 318.684 365.383 313.868C368.143 309.052 369.67 303.628 369.828 298.08C369.987 292.531 368.771 287.029 366.29 282.063C363.809 277.098 360.139 272.822 355.607 269.617C351.075 266.412 345.821 264.377 340.312 263.692C342.407 258.901 343.355 253.688 343.083 248.466C342.812 243.245 341.326 238.158 338.746 233.611C336.165 229.063 332.56 225.18 328.217 222.269C323.873 219.358 318.911 217.499 313.724 216.84C315.761 212.058 316.662 206.87 316.359 201.681C316.056 196.493 314.555 191.445 311.975 186.933C309.396 182.421 305.806 178.567 301.489 175.674C297.171 172.781 292.242 170.926 287.088 170.256C289.235 165.133 290.083 159.558 289.556 154.028C289.029 148.498 287.143 143.183 284.066 138.558C280.99 133.933 276.818 130.139 271.921 127.515C267.024 124.892 261.555 123.519 256 123.519C250.445 123.519 244.976 124.892 240.079 127.515C235.183 130.139 231.011 133.933 227.934 138.558C224.857 143.183 222.971 148.498 222.444 154.028C221.917 159.558 222.765 165.133 224.912 170.256C219.758 170.926 214.829 172.781 210.512 175.674C206.194 178.567 202.605 182.421 200.025 186.933C197.445 191.445 195.945 196.493 195.641 201.681C195.338 206.87 196.24 212.058 198.276 216.84C193.089 217.499 188.127 219.358 183.784 222.269C179.44 225.18 175.835 229.063 173.255 233.611C170.674 238.158 169.189 243.245 168.917 248.466C168.645 253.688 169.594 258.901 171.688 263.692C163.179 264.755 155.396 269.022 149.924 275.624C144.451 282.226 141.702 290.666 142.235 299.224C142.769 307.782 146.545 315.815 152.795 321.687C159.044 327.558 167.297 330.826 175.872 330.824V330.824ZM256 230.536C259.899 230.535 263.71 231.691 266.953 233.856C270.195 236.022 272.722 239.1 274.214 242.702C275.707 246.304 276.098 250.267 275.338 254.091C274.578 257.915 272.701 261.428 269.944 264.185C267.187 266.942 263.675 268.82 259.851 269.581C256.027 270.342 252.064 269.952 248.462 268.46C244.859 266.968 241.781 264.442 239.614 261.2C237.448 257.958 236.292 254.147 236.292 250.248C236.296 245.022 238.374 240.011 242.069 236.316C245.764 232.62 250.774 230.541 256 230.536V230.536ZM229.292 316.824C225.393 316.825 221.582 315.669 218.34 313.504C215.097 311.338 212.57 308.26 211.078 304.658C209.585 301.056 209.194 297.093 209.954 293.269C210.715 289.445 212.592 285.932 215.348 283.175C218.105 280.418 221.617 278.54 225.441 277.779C229.265 277.018 233.229 277.408 236.831 278.9C240.433 280.392 243.512 282.918 245.678 286.16C247.844 289.402 249 293.213 249 297.112C248.995 302.338 246.917 307.348 243.222 311.043C239.527 314.739 234.518 316.818 229.292 316.824ZM282.708 316.824C278.809 316.828 274.996 315.675 271.751 313.512C268.507 311.348 265.977 308.271 264.482 304.669C262.987 301.068 262.594 297.104 263.352 293.279C264.111 289.454 265.987 285.939 268.743 283.181C271.499 280.422 275.011 278.542 278.835 277.78C282.659 277.018 286.624 277.407 290.227 278.899C293.83 280.39 296.91 282.916 299.077 286.159C301.244 289.401 302.4 293.212 302.4 297.112C302.395 302.335 300.319 307.343 296.628 311.038C292.937 314.733 287.931 316.813 282.708 316.824V316.824ZM355.836 297.112C355.837 301.011 354.681 304.823 352.516 308.065C350.35 311.307 347.272 313.834 343.669 315.327C340.067 316.819 336.104 317.21 332.279 316.449C328.455 315.689 324.943 313.811 322.186 311.054C319.429 308.297 317.551 304.785 316.791 300.961C316.03 297.136 316.421 293.173 317.913 289.571C319.406 285.969 321.933 282.89 325.175 280.724C328.417 278.559 332.229 277.403 336.128 277.404C341.353 277.41 346.362 279.489 350.057 283.183C353.751 286.878 355.83 291.887 355.836 297.112V297.112ZM329.128 250.248C329.128 254.147 327.972 257.958 325.806 261.199C323.64 264.441 320.561 266.968 316.96 268.459C313.358 269.951 309.394 270.342 305.571 269.581C301.747 268.821 298.234 266.943 295.478 264.186C292.721 261.43 290.843 257.917 290.083 254.094C289.322 250.27 289.713 246.306 291.205 242.705C292.697 239.103 295.223 236.024 298.465 233.858C301.706 231.692 305.517 230.536 309.416 230.536C314.642 230.542 319.652 232.621 323.348 236.316C327.043 240.012 329.122 245.022 329.128 250.248V250.248ZM302.4 203.648C302.399 207.546 301.243 211.356 299.077 214.596C296.911 217.836 293.833 220.362 290.231 221.853C286.63 223.344 282.668 223.734 278.845 222.973C275.022 222.212 271.511 220.335 268.755 217.578C265.999 214.822 264.123 211.31 263.363 207.487C262.602 203.664 262.993 199.702 264.485 196.101C265.976 192.5 268.502 189.422 271.743 187.257C274.984 185.092 278.794 183.936 282.692 183.936C287.918 183.942 292.928 186.021 296.622 189.717C300.317 193.412 302.395 198.422 302.4 203.648V203.648ZM256 137.52C259.898 137.52 263.708 138.676 266.949 140.841C270.19 143.007 272.716 146.085 274.208 149.686C275.7 153.287 276.09 157.25 275.329 161.073C274.569 164.896 272.692 168.407 269.936 171.164C267.18 173.92 263.668 175.797 259.845 176.557C256.022 177.318 252.059 176.927 248.458 175.436C244.857 173.944 241.779 171.418 239.614 168.177C237.448 164.936 236.292 161.126 236.292 157.228C236.297 152.003 238.376 146.993 242.07 143.298C245.765 139.603 250.775 137.525 256 137.52V137.52ZM229.292 183.92C233.191 183.916 237.003 185.068 240.247 187.231C243.491 189.394 246.021 192.47 247.516 196.071C249.012 199.672 249.406 203.635 248.649 207.459C247.892 211.284 246.018 214.798 243.263 217.558C240.509 220.317 236.998 222.198 233.175 222.962C229.352 223.726 225.388 223.339 221.784 221.85C218.181 220.361 215.1 217.837 212.931 214.597C210.763 211.357 209.603 207.547 209.6 203.648C209.605 198.425 211.681 193.417 215.372 189.722C219.064 186.027 224.069 183.947 229.292 183.936V183.92ZM202.584 230.52C206.483 230.52 210.294 231.676 213.536 233.842C216.777 236.008 219.304 239.087 220.796 242.688C222.288 246.29 222.678 250.254 221.917 254.078C221.157 257.901 219.279 261.414 216.523 264.17C213.766 266.927 210.254 268.805 206.43 269.565C202.606 270.326 198.643 269.935 195.041 268.443C191.439 266.952 188.36 264.425 186.194 261.183C184.028 257.942 182.872 254.131 182.872 250.232C182.882 245.008 184.962 240.002 188.657 236.31C192.352 232.618 197.361 230.541 202.584 230.536V230.52ZM175.872 277.404C179.771 277.403 183.583 278.559 186.825 280.724C190.067 282.89 192.594 285.969 194.087 289.571C195.579 293.173 195.97 297.136 195.21 300.961C194.449 304.785 192.572 308.297 189.815 311.054C187.058 313.811 183.545 315.689 179.721 316.449C175.897 317.21 171.933 316.819 168.331 315.327C164.729 313.834 161.65 311.307 159.485 308.065C157.319 304.823 156.163 301.011 156.164 297.112C156.17 291.887 158.249 286.878 161.943 283.183C165.638 279.489 170.647 277.41 175.872 277.404V277.404Z" fill="#15252F"/>
<path d="M140.208 359.352H371.808C379.219 359.381 386.506 357.452 392.932 353.759C399.357 350.066 404.693 344.741 408.398 338.323C412.104 331.905 414.048 324.621 414.034 317.21C414.019 309.799 412.047 302.524 408.316 296.12L292.508 95.56C288.808 89.1516 283.486 83.83 277.078 80.13C270.67 76.4301 263.4 74.4823 256 74.4823C248.6 74.4823 241.331 76.4301 234.922 80.13C228.514 83.83 223.192 89.1516 219.492 95.56L103.7 296.12C100.001 302.528 98.0532 309.798 98.0535 317.197C98.0537 324.597 100.002 331.866 103.702 338.274C107.401 344.683 112.723 350.004 119.131 353.704C125.539 357.404 132.809 359.352 140.208 359.352V359.352ZM115.808 303.12L231.6 102.56C234.072 98.2807 237.627 94.7273 241.907 92.2568C246.187 89.7863 251.042 88.4857 255.984 88.4857C260.926 88.4857 265.781 89.7863 270.061 92.2568C274.341 94.7273 277.896 98.2807 280.368 102.56L396.176 303.12C398.648 307.401 399.948 312.258 399.947 317.201C399.946 322.145 398.644 327.001 396.171 331.282C393.698 335.562 390.141 339.116 385.859 341.586C381.577 344.056 376.72 345.355 371.776 345.352H140.176C135.226 345.373 130.357 344.086 126.064 341.62C121.771 339.154 118.206 335.598 115.729 331.312C113.253 327.025 111.953 322.16 111.961 317.21C111.969 312.259 113.285 307.398 115.776 303.12H115.808Z" fill="#15252F"/>
<path d="M428.428 374.184C426.987 372.759 425.273 371.639 423.389 370.892C421.505 370.145 419.49 369.786 417.464 369.836L117.2 375.868L107.6 376.06L93.8961 376.332C89.9179 376.434 86.1356 378.08 83.3506 380.923C80.5656 383.765 78.9966 387.581 78.9761 391.56V401.936C78.9956 405.915 80.5644 409.731 83.3498 412.573C86.1351 415.415 89.9179 417.06 93.8961 417.16L107.6 417.436L149 418.268H149.124L417.444 423.66H417.756C421.794 423.657 425.665 422.051 428.519 419.194C431.373 416.338 432.976 412.466 432.976 408.428V385.064C432.986 383.038 432.588 381.031 431.807 379.162C431.026 377.293 429.877 375.6 428.428 374.184V374.184ZM142.164 404.128L114.764 403.576V389.916L142.164 389.368V404.128ZM93.0001 401.936V391.56C93.001 391.239 93.1269 390.932 93.3509 390.703C93.575 390.473 93.8796 390.34 94.2001 390.332L100.76 390.2V403.296L94.2001 403.164C93.8796 403.156 93.575 403.023 93.3509 402.793C93.1269 402.564 93.001 402.257 93.0001 401.936ZM419 408.432C419.002 408.596 418.971 408.759 418.907 408.91C418.844 409.062 418.75 409.198 418.632 409.312C418.368 409.496 418.066 409.616 417.748 409.664L156.148 404.408V389.084L417.748 383.832H417.776C417.937 383.833 418.097 383.865 418.246 383.927C418.395 383.989 418.53 384.08 418.643 384.195C418.757 384.309 418.847 384.445 418.908 384.594C418.969 384.743 419.001 384.903 419 385.064V408.432Z" fill="#15252F"/>
</svg>
