<svg width="514" height="514" viewBox="0 0 514 514" fill="none" xmlns="http://www.w3.org/2000/svg">
<g clip-path="url(#clip0)">
<path d="M1.44374 375.297L1.76514 460.63L151.097 460.067L150.776 374.735L1.44374 375.297Z" fill="#15252F"/>
<path d="M1.04189 268.631L1.36328 353.964L342.694 352.678L342.372 267.346L1.04189 268.631Z" fill="#15252F"/>
<path d="M363.706 267.265L364.028 352.598L513.36 352.035L513.038 266.703L363.706 267.265Z" fill="#15252F"/>
<path d="M0.640031 161.965L0.961426 247.297L192.96 246.574L192.639 161.242L0.640031 161.965Z" fill="#15252F"/>
<path d="M0.560059 140.632L288.558 139.547C294.449 139.525 299.207 134.731 299.185 128.84L298.944 64.8407C298.922 58.9498 294.128 54.1918 288.237 54.214L0.23866 55.2987L0.560059 140.632Z" fill="#15252F"/>
<path d="M213.972 161.161L214.293 246.494L512.958 245.369L512.636 160.037L213.972 161.161Z" fill="#15252F"/>
<path d="M417.762 459.063C423.653 459.041 428.411 454.247 428.389 448.356L428.148 384.356C428.126 378.465 423.332 373.707 417.441 373.73L172.11 374.654L172.431 459.987L417.762 459.063Z" fill="#15252F"/>
</g>
<defs>
<clipPath id="clip0">
<rect width="512" height="512" fill="white" transform="translate(1.96582 513.962) rotate(-90.2158)"/>
</clipPath>
</defs>
</svg>
